<svg xmlns="http://www.w3.org/2000/svg" xmlns:xlink="http://www.w3.org/1999/xlink" contentStyleType="text/css" data-diagram-type="CLASS" height="367px" preserveAspectRatio="none" style="width:2868px;height:367px;background:#FFFFFF;" version="1.1" viewBox="0 0 2868 367" width="2868px" zoomAndPan="magnify"><?plantuml $version$?><defs/><g><g class="title" data-source-line="5"><text fill="#000000" font-family="sans-serif" font-size="14" font-weight="700" lengthAdjust="spacing" textLength="344.668" x="1258.4184" y="23.1318">Diagrama de Clases &#8212; Abstract Factory (Muebleria)</text></g><!--class Chair--><g class="entity" data-qualified-name="Chair" data-source-line="8" id="ent0001"><rect fill="#F1F1F1" height="104.1934" rx="2.5" ry="2.5" style="stroke:#181818;stroke-width:0.5;" width="116.6787" x="1597.08" y="52.1486"/><ellipse cx="1624.967" cy="72.0974" fill="#B4A7E5" rx="11" ry="11" style="stroke:#181818;stroke-width:1;"/><path d="M1620.9982,78.5974 L1620.9982,76.6755 L1623.4982,76.6755 L1623.4982,68.113 L1620.9982,68.113 L1620.9982,66.1911 L1628.1388,66.1911 L1628.1388,68.113 L1625.6388,68.113 L1625.6388,76.6755 L1628.1388,76.6755 L1628.1388,78.5974 L1620.9982,78.5974 Z " fill="#000000"/><text fill="#000000" font-family="sans-serif" font-size="12" font-style="italic" lengthAdjust="spacing" textLength="60.041" x="1639.8307" y="68.4045">&#171;Interface&#187;</text><text fill="#000000" font-family="sans-serif" font-size="14" font-style="italic" lengthAdjust="spacing" textLength="33.4551" x="1653.1237" y="84.0793">Chair</text><line style="stroke:#181818;stroke-width:0.5;" x1="1598.08" x2="1712.7587" y1="92.0461" y2="92.0461"/><line style="stroke:#181818;stroke-width:0.5;" x1="1598.08" x2="1712.7587" y1="100.0461" y2="100.0461"/><text fill="#000000" font-family="sans-serif" font-size="14" font-style="italic" lengthAdjust="spacing" textLength="104.6787" x="1603.08" y="117.1779">+hasLegs(): bool</text><text fill="#000000" font-family="sans-serif" font-size="14" font-style="italic" lengthAdjust="spacing" textLength="83.6377" x="1603.08" y="133.2766">+sitOn(): void</text><text fill="#000000" font-family="sans-serif" font-size="14" font-style="italic" lengthAdjust="spacing" textLength="88.2998" x="1603.08" y="149.3752">+style(): string</text></g><!--class Sofa--><g class="entity" data-qualified-name="Sofa" data-source-line="14" id="ent0002"><rect fill="#F1F1F1" height="104.1934" rx="2.5" ry="2.5" style="stroke:#181818;stroke-width:0.5;" width="144.6855" x="949.08" y="52.1486"/><ellipse cx="989.57" cy="72.0974" fill="#B4A7E5" rx="11" ry="11" style="stroke:#181818;stroke-width:1;"/><path d="M985.6013,78.5974 L985.6013,76.6755 L988.1013,76.6755 L988.1013,68.113 L985.6013,68.113 L985.6013,66.1911 L992.7419,66.1911 L992.7419,68.113 L990.2419,68.113 L990.2419,76.6755 L992.7419,76.6755 L992.7419,78.5974 L985.6013,78.5974 Z " fill="#000000"/><text fill="#000000" font-family="sans-serif" font-size="12" font-style="italic" lengthAdjust="spacing" textLength="60.041" x="1007.2345" y="68.4045">&#171;Interface&#187;</text><text fill="#000000" font-family="sans-serif" font-size="14" font-style="italic" lengthAdjust="spacing" textLength="28.7998" x="1022.8551" y="84.0793">Sofa</text><line style="stroke:#181818;stroke-width:0.5;" x1="950.08" x2="1092.7655" y1="92.0461" y2="92.0461"/><line style="stroke:#181818;stroke-width:0.5;" x1="950.08" x2="1092.7655" y1="100.0461" y2="100.0461"/><text fill="#000000" font-family="sans-serif" font-size="14" font-style="italic" lengthAdjust="spacing" textLength="132.6855" x="955.08" y="117.1779">+hasCushions(): bool</text><text fill="#000000" font-family="sans-serif" font-size="14" font-style="italic" lengthAdjust="spacing" textLength="83.6445" x="955.08" y="133.2766">+lieOn(): void</text><text fill="#000000" font-family="sans-serif" font-size="14" font-style="italic" lengthAdjust="spacing" textLength="88.2998" x="955.08" y="149.3752">+style(): string</text></g><!--class CoffeeTable--><g class="entity" data-qualified-name="CoffeeTable" data-source-line="20" id="ent0003"><rect fill="#F1F1F1" height="104.1934" rx="2.5" ry="2.5" style="stroke:#181818;stroke-width:0.5;" width="134.5684" x="260.14" y="52.1486"/><ellipse cx="286.9749" cy="72.0974" fill="#B4A7E5" rx="11" ry="11" style="stroke:#181818;stroke-width:1;"/><path d="M283.0062,78.5974 L283.0062,76.6755 L285.5062,76.6755 L285.5062,68.113 L283.0062,68.113 L283.0062,66.1911 L290.1468,66.1911 L290.1468,68.113 L287.6468,68.113 L287.6468,76.6755 L290.1468,76.6755 L290.1468,78.5974 L283.0062,78.5974 Z " fill="#000000"/><text fill="#000000" font-family="sans-serif" font-size="12" font-style="italic" lengthAdjust="spacing" textLength="60.041" x="311.7187" y="68.4045">&#171;Interface&#187;</text><text fill="#000000" font-family="sans-serif" font-size="14" font-style="italic" lengthAdjust="spacing" textLength="76.2686" x="303.6049" y="84.0793">CoffeeTable</text><line style="stroke:#181818;stroke-width:0.5;" x1="261.14" x2="393.7084" y1="92.0461" y2="92.0461"/><line style="stroke:#181818;stroke-width:0.5;" x1="261.14" x2="393.7084" y1="100.0461" y2="100.0461"/><text fill="#000000" font-family="sans-serif" font-size="14" font-style="italic" lengthAdjust="spacing" textLength="122.5684" x="266.14" y="117.1779">+hasSurface(): bool</text><text fill="#000000" font-family="sans-serif" font-size="14" font-style="italic" lengthAdjust="spacing" textLength="103.1064" x="266.14" y="133.2766">+placeOn(): void</text><text fill="#000000" font-family="sans-serif" font-size="14" font-style="italic" lengthAdjust="spacing" textLength="88.2998" x="266.14" y="149.3752">+style(): string</text></g><!--class ModernChair--><g class="entity" data-qualified-name="ModernChair" data-source-line="27" id="ent0004"><rect fill="#F1F1F1" height="96.2959" rx="2.5" ry="2.5" style="stroke:#181818;stroke-width:0.5;" width="116.6787" x="1795.08" y="248.4386"/><ellipse cx="1811.7697" cy="264.4386" fill="#ADD1B2" rx="11" ry="11" style="stroke:#181818;stroke-width:1;"/><path d="M1812.0041,271.1105 Q1810.8009,271.1105 1809.9103,270.6574 Q1809.0353,270.2043 1808.5509,269.3918 Q1808.0666,268.5636 1808.0666,267.4386 L1808.0666,262.0324 Q1808.0666,260.9074 1808.5509,260.0949 Q1809.0353,259.2668 1809.9103,258.8136 Q1810.8009,258.3605 1812.0041,258.3605 Q1813.1916,258.3605 1814.0666,258.8136 Q1814.9572,259.2668 1815.4572,260.0949 Q1815.9572,260.9074 1815.9572,262.0324 L1813.8009,262.0324 Q1813.8009,261.1574 1813.3322,260.7043 Q1812.8791,260.2355 1812.0041,260.2355 Q1811.1447,260.2355 1810.6603,260.7043 Q1810.1916,261.1574 1810.1916,262.0324 L1810.1916,267.4386 Q1810.1916,268.298 1810.6603,268.7668 Q1811.1447,269.2355 1812.0041,269.2355 Q1812.8791,269.2355 1813.3322,268.7668 Q1813.8009,268.298 1813.8009,267.4386 L1815.9572,267.4386 Q1815.9572,268.5636 1815.4572,269.3918 Q1814.9572,270.2043 1814.0666,270.6574 Q1813.1916,271.1105 1812.0041,271.1105 Z " fill="#000000"/><text fill="#000000" font-family="sans-serif" font-size="14" lengthAdjust="spacing" textLength="80.9238" x="1826.1452" y="269.5212">ModernChair</text><line style="stroke:#181818;stroke-width:0.5;" x1="1796.08" x2="1910.7587" y1="280.4386" y2="280.4386"/><line style="stroke:#181818;stroke-width:0.5;" x1="1796.08" x2="1910.7587" y1="288.4386" y2="288.4386"/><text fill="#000000" font-family="sans-serif" font-size="14" lengthAdjust="spacing" textLength="104.6787" x="1801.08" y="305.5705">+hasLegs(): bool</text><text fill="#000000" font-family="sans-serif" font-size="14" lengthAdjust="spacing" textLength="83.6377" x="1801.08" y="321.6691">+sitOn(): void</text><text fill="#000000" font-family="sans-serif" font-size="14" lengthAdjust="spacing" textLength="88.2998" x="1801.08" y="337.7677">+style(): string</text></g><!--class ModernSofa--><g class="entity" data-qualified-name="ModernSofa" data-source-line="33" id="ent0005"><rect fill="#F1F1F1" height="96.2959" rx="2.5" ry="2.5" style="stroke:#181818;stroke-width:0.5;" width="144.6855" x="1174.08" y="248.4386"/><ellipse cx="1205.4676" cy="264.4386" fill="#ADD1B2" rx="11" ry="11" style="stroke:#181818;stroke-width:1;"/><path d="M1205.702,271.1105 Q1204.4989,271.1105 1203.6083,270.6574 Q1202.7333,270.2043 1202.2489,269.3918 Q1201.7645,268.5636 1201.7645,267.4386 L1201.7645,262.0324 Q1201.7645,260.9074 1202.2489,260.0949 Q1202.7333,259.2668 1203.6083,258.8136 Q1204.4989,258.3605 1205.702,258.3605 Q1206.8895,258.3605 1207.7645,258.8136 Q1208.6551,259.2668 1209.1551,260.0949 Q1209.6551,260.9074 1209.6551,262.0324 L1207.4989,262.0324 Q1207.4989,261.1574 1207.0301,260.7043 Q1206.577,260.2355 1205.702,260.2355 Q1204.8426,260.2355 1204.3583,260.7043 Q1203.8895,261.1574 1203.8895,262.0324 L1203.8895,267.4386 Q1203.8895,268.298 1204.3583,268.7668 Q1204.8426,269.2355 1205.702,269.2355 Q1206.577,269.2355 1207.0301,268.7668 Q1207.4989,268.298 1207.4989,267.4386 L1209.6551,267.4386 Q1209.6551,268.5636 1209.1551,269.3918 Q1208.6551,270.2043 1207.7645,270.6574 Q1206.8895,271.1105 1205.702,271.1105 Z " fill="#000000"/><text fill="#000000" font-family="sans-serif" font-size="14" lengthAdjust="spacing" textLength="76.2686" x="1223.1093" y="269.5212">ModernSofa</text><line style="stroke:#181818;stroke-width:0.5;" x1="1175.08" x2="1317.7655" y1="280.4386" y2="280.4386"/><line style="stroke:#181818;stroke-width:0.5;" x1="1175.08" x2="1317.7655" y1="288.4386" y2="288.4386"/><text fill="#000000" font-family="sans-serif" font-size="14" lengthAdjust="spacing" textLength="132.6855" x="1180.08" y="305.5705">+hasCushions(): bool</text><text fill="#000000" font-family="sans-serif" font-size="14" lengthAdjust="spacing" textLength="83.6445" x="1180.08" y="321.6691">+lieOn(): void</text><text fill="#000000" font-family="sans-serif" font-size="14" lengthAdjust="spacing" textLength="88.2998" x="1180.08" y="337.7677">+style(): string</text></g><!--class ModernCoffeeTable--><g class="entity" data-qualified-name="ModernCoffeeTable" data-source-line="39" id="ent0006"><rect fill="#F1F1F1" height="96.2959" rx="2.5" ry="2.5" style="stroke:#181818;stroke-width:0.5;" width="155.7373" x="488.55" y="248.4386"/><ellipse cx="503.55" cy="264.4386" fill="#ADD1B2" rx="11" ry="11" style="stroke:#181818;stroke-width:1;"/><path d="M503.7844,271.1105 Q502.5813,271.1105 501.6906,270.6574 Q500.8156,270.2043 500.3313,269.3918 Q499.8469,268.5636 499.8469,267.4386 L499.8469,262.0324 Q499.8469,260.9074 500.3313,260.0949 Q500.8156,259.2668 501.6906,258.8136 Q502.5813,258.3605 503.7844,258.3605 Q504.9719,258.3605 505.8469,258.8136 Q506.7375,259.2668 507.2375,260.0949 Q507.7375,260.9074 507.7375,262.0324 L505.5813,262.0324 Q505.5813,261.1574 505.1125,260.7043 Q504.6594,260.2355 503.7844,260.2355 Q502.925,260.2355 502.4406,260.7043 Q501.9719,261.1574 501.9719,262.0324 L501.9719,267.4386 Q501.9719,268.298 502.4406,268.7668 Q502.925,269.2355 503.7844,269.2355 Q504.6594,269.2355 505.1125,268.7668 Q505.5813,268.298 505.5813,267.4386 L507.7375,267.4386 Q507.7375,268.5636 507.2375,269.3918 Q506.7375,270.2043 505.8469,270.6574 Q504.9719,271.1105 503.7844,271.1105 Z " fill="#000000"/><text fill="#000000" font-family="sans-serif" font-size="14" lengthAdjust="spacing" textLength="123.7373" x="517.55" y="269.5212">ModernCoffeeTable</text><line style="stroke:#181818;stroke-width:0.5;" x1="489.55" x2="643.2873" y1="280.4386" y2="280.4386"/><line style="stroke:#181818;stroke-width:0.5;" x1="489.55" x2="643.2873" y1="288.4386" y2="288.4386"/><text fill="#000000" font-family="sans-serif" font-size="14" lengthAdjust="spacing" textLength="122.5684" x="494.55" y="305.5705">+hasSurface(): bool</text><text fill="#000000" font-family="sans-serif" font-size="14" lengthAdjust="spacing" textLength="103.1064" x="494.55" y="321.6691">+placeOn(): void</text><text fill="#000000" font-family="sans-serif" font-size="14" lengthAdjust="spacing" textLength="88.2998" x="494.55" y="337.7677">+style(): string</text></g><!--class VictorianChair--><g class="entity" data-qualified-name="VictorianChair" data-source-line="46" id="ent0007"><rect fill="#F1F1F1" height="96.2959" rx="2.5" ry="2.5" style="stroke:#181818;stroke-width:0.5;" width="119.9238" x="1595.46" y="248.4386"/><ellipse cx="1610.46" cy="264.4386" fill="#ADD1B2" rx="11" ry="11" style="stroke:#181818;stroke-width:1;"/><path d="M1610.6944,271.1105 Q1609.4913,271.1105 1608.6006,270.6574 Q1607.7256,270.2043 1607.2413,269.3918 Q1606.7569,268.5636 1606.7569,267.4386 L1606.7569,262.0324 Q1606.7569,260.9074 1607.2413,260.0949 Q1607.7256,259.2668 1608.6006,258.8136 Q1609.4913,258.3605 1610.6944,258.3605 Q1611.8819,258.3605 1612.7569,258.8136 Q1613.6475,259.2668 1614.1475,260.0949 Q1614.6475,260.9074 1614.6475,262.0324 L1612.4913,262.0324 Q1612.4913,261.1574 1612.0225,260.7043 Q1611.5694,260.2355 1610.6944,260.2355 Q1609.835,260.2355 1609.3506,260.7043 Q1608.8819,261.1574 1608.8819,262.0324 L1608.8819,267.4386 Q1608.8819,268.298 1609.3506,268.7668 Q1609.835,269.2355 1610.6944,269.2355 Q1611.5694,269.2355 1612.0225,268.7668 Q1612.4913,268.298 1612.4913,267.4386 L1614.6475,267.4386 Q1614.6475,268.5636 1614.1475,269.3918 Q1613.6475,270.2043 1612.7569,270.6574 Q1611.8819,271.1105 1610.6944,271.1105 Z " fill="#000000"/><text fill="#000000" font-family="sans-serif" font-size="14" lengthAdjust="spacing" textLength="87.9238" x="1624.46" y="269.5212">VictorianChair</text><line style="stroke:#181818;stroke-width:0.5;" x1="1596.46" x2="1714.3838" y1="280.4386" y2="280.4386"/><line style="stroke:#181818;stroke-width:0.5;" x1="1596.46" x2="1714.3838" y1="288.4386" y2="288.4386"/><text fill="#000000" font-family="sans-serif" font-size="14" lengthAdjust="spacing" textLength="104.6787" x="1601.46" y="305.5705">+hasLegs(): bool</text><text fill="#000000" font-family="sans-serif" font-size="14" lengthAdjust="spacing" textLength="83.6377" x="1601.46" y="321.6691">+sitOn(): void</text><text fill="#000000" font-family="sans-serif" font-size="14" lengthAdjust="spacing" textLength="88.2998" x="1601.46" y="337.7677">+style(): string</text></g><!--class VictorianSofa--><g class="entity" data-qualified-name="VictorianSofa" data-source-line="52" id="ent0008"><rect fill="#F1F1F1" height="96.2959" rx="2.5" ry="2.5" style="stroke:#181818;stroke-width:0.5;" width="144.6855" x="949.08" y="248.4386"/><ellipse cx="977.3176" cy="264.4386" fill="#ADD1B2" rx="11" ry="11" style="stroke:#181818;stroke-width:1;"/><path d="M977.552,271.1105 Q976.3489,271.1105 975.4583,270.6574 Q974.5833,270.2043 974.0989,269.3918 Q973.6145,268.5636 973.6145,267.4386 L973.6145,262.0324 Q973.6145,260.9074 974.0989,260.0949 Q974.5833,259.2668 975.4583,258.8136 Q976.3489,258.3605 977.552,258.3605 Q978.7395,258.3605 979.6145,258.8136 Q980.5051,259.2668 981.0051,260.0949 Q981.5051,260.9074 981.5051,262.0324 L979.3489,262.0324 Q979.3489,261.1574 978.8801,260.7043 Q978.427,260.2355 977.552,260.2355 Q976.6926,260.2355 976.2083,260.7043 Q975.7395,261.1574 975.7395,262.0324 L975.7395,267.4386 Q975.7395,268.298 976.2083,268.7668 Q976.6926,269.2355 977.552,269.2355 Q978.427,269.2355 978.8801,268.7668 Q979.3489,268.298 979.3489,267.4386 L981.5051,267.4386 Q981.5051,268.5636 981.0051,269.3918 Q980.5051,270.2043 979.6145,270.6574 Q978.7395,271.1105 977.552,271.1105 Z " fill="#000000"/><text fill="#000000" font-family="sans-serif" font-size="14" lengthAdjust="spacing" textLength="83.2686" x="994.2593" y="269.5212">VictorianSofa</text><line style="stroke:#181818;stroke-width:0.5;" x1="950.08" x2="1092.7655" y1="280.4386" y2="280.4386"/><line style="stroke:#181818;stroke-width:0.5;" x1="950.08" x2="1092.7655" y1="288.4386" y2="288.4386"/><text fill="#000000" font-family="sans-serif" font-size="14" lengthAdjust="spacing" textLength="132.6855" x="955.08" y="305.5705">+hasCushions(): bool</text><text fill="#000000" font-family="sans-serif" font-size="14" lengthAdjust="spacing" textLength="83.6445" x="955.08" y="321.6691">+lieOn(): void</text><text fill="#000000" font-family="sans-serif" font-size="14" lengthAdjust="spacing" textLength="88.2998" x="955.08" y="337.7677">+style(): string</text></g><!--class VictorianCoffeeTable--><g class="entity" data-qualified-name="VictorianCoffeeTable" data-source-line="58" id="ent0009"><rect fill="#F1F1F1" height="96.2959" rx="2.5" ry="2.5" style="stroke:#181818;stroke-width:0.5;" width="162.7373" x="246.05" y="248.4386"/><ellipse cx="261.05" cy="264.4386" fill="#ADD1B2" rx="11" ry="11" style="stroke:#181818;stroke-width:1;"/><path d="M261.2844,271.1105 Q260.0813,271.1105 259.1906,270.6574 Q258.3156,270.2043 257.8313,269.3918 Q257.3469,268.5636 257.3469,267.4386 L257.3469,262.0324 Q257.3469,260.9074 257.8313,260.0949 Q258.3156,259.2668 259.1906,258.8136 Q260.0813,258.3605 261.2844,258.3605 Q262.4719,258.3605 263.3469,258.8136 Q264.2375,259.2668 264.7375,260.0949 Q265.2375,260.9074 265.2375,262.0324 L263.0813,262.0324 Q263.0813,261.1574 262.6125,260.7043 Q262.1594,260.2355 261.2844,260.2355 Q260.425,260.2355 259.9406,260.7043 Q259.4719,261.1574 259.4719,262.0324 L259.4719,267.4386 Q259.4719,268.298 259.9406,268.7668 Q260.425,269.2355 261.2844,269.2355 Q262.1594,269.2355 262.6125,268.7668 Q263.0813,268.298 263.0813,267.4386 L265.2375,267.4386 Q265.2375,268.5636 264.7375,269.3918 Q264.2375,270.2043 263.3469,270.6574 Q262.4719,271.1105 261.2844,271.1105 Z " fill="#000000"/><text fill="#000000" font-family="sans-serif" font-size="14" lengthAdjust="spacing" textLength="130.7373" x="275.05" y="269.5212">VictorianCoffeeTable</text><line style="stroke:#181818;stroke-width:0.5;" x1="247.05" x2="407.7873" y1="280.4386" y2="280.4386"/><line style="stroke:#181818;stroke-width:0.5;" x1="247.05" x2="407.7873" y1="288.4386" y2="288.4386"/><text fill="#000000" font-family="sans-serif" font-size="14" lengthAdjust="spacing" textLength="122.5684" x="252.05" y="305.5705">+hasSurface(): bool</text><text fill="#000000" font-family="sans-serif" font-size="14" lengthAdjust="spacing" textLength="103.1064" x="252.05" y="321.6691">+placeOn(): void</text><text fill="#000000" font-family="sans-serif" font-size="14" lengthAdjust="spacing" textLength="88.2998" x="252.05" y="337.7677">+style(): string</text></g><!--class ArtDecoChair--><g class="entity" data-qualified-name="ArtDecoChair" data-source-line="65" id="ent0010"><rect fill="#F1F1F1" height="96.2959" rx="2.5" ry="2.5" style="stroke:#181818;stroke-width:0.5;" width="116.6787" x="1399.08" y="248.4386"/><ellipse cx="1414.3731" cy="264.4386" fill="#ADD1B2" rx="11" ry="11" style="stroke:#181818;stroke-width:1;"/><path d="M1414.6075,271.1105 Q1413.4044,271.1105 1412.5137,270.6574 Q1411.6387,270.2043 1411.1544,269.3918 Q1410.67,268.5636 1410.67,267.4386 L1410.67,262.0324 Q1410.67,260.9074 1411.1544,260.0949 Q1411.6387,259.2668 1412.5137,258.8136 Q1413.4044,258.3605 1414.6075,258.3605 Q1415.795,258.3605 1416.67,258.8136 Q1417.5606,259.2668 1418.0606,260.0949 Q1418.5606,260.9074 1418.5606,262.0324 L1416.4044,262.0324 Q1416.4044,261.1574 1415.9356,260.7043 Q1415.4825,260.2355 1414.6075,260.2355 Q1413.7481,260.2355 1413.2637,260.7043 Q1412.795,261.1574 1412.795,262.0324 L1412.795,267.4386 Q1412.795,268.298 1413.2637,268.7668 Q1413.7481,269.2355 1414.6075,269.2355 Q1415.4825,269.2355 1415.9356,268.7668 Q1416.4044,268.298 1416.4044,267.4386 L1418.5606,267.4386 Q1418.5606,268.5636 1418.0606,269.3918 Q1417.5606,270.2043 1416.67,270.6574 Q1415.795,271.1105 1414.6075,271.1105 Z " fill="#000000"/><text fill="#000000" font-family="sans-serif" font-size="14" lengthAdjust="spacing" textLength="84.0273" x="1428.4383" y="269.5212">ArtDecoChair</text><line style="stroke:#181818;stroke-width:0.5;" x1="1400.08" x2="1514.7587" y1="280.4386" y2="280.4386"/><line style="stroke:#181818;stroke-width:0.5;" x1="1400.08" x2="1514.7587" y1="288.4386" y2="288.4386"/><text fill="#000000" font-family="sans-serif" font-size="14" lengthAdjust="spacing" textLength="104.6787" x="1405.08" y="305.5705">+hasLegs(): bool</text><text fill="#000000" font-family="sans-serif" font-size="14" lengthAdjust="spacing" textLength="83.6377" x="1405.08" y="321.6691">+sitOn(): void</text><text fill="#000000" font-family="sans-serif" font-size="14" lengthAdjust="spacing" textLength="88.2998" x="1405.08" y="337.7677">+style(): string</text></g><!--class ArtDecoSofa--><g class="entity" data-qualified-name="ArtDecoSofa" data-source-line="71" id="ent0011"><rect fill="#F1F1F1" height="96.2959" rx="2.5" ry="2.5" style="stroke:#181818;stroke-width:0.5;" width="144.6855" x="724.08" y="248.4386"/><ellipse cx="754.0711" cy="264.4386" fill="#ADD1B2" rx="11" ry="11" style="stroke:#181818;stroke-width:1;"/><path d="M754.3054,271.1105 Q753.1023,271.1105 752.2117,270.6574 Q751.3367,270.2043 750.8523,269.3918 Q750.3679,268.5636 750.3679,267.4386 L750.3679,262.0324 Q750.3679,260.9074 750.8523,260.0949 Q751.3367,259.2668 752.2117,258.8136 Q753.1023,258.3605 754.3054,258.3605 Q755.4929,258.3605 756.3679,258.8136 Q757.2586,259.2668 757.7586,260.0949 Q758.2586,260.9074 758.2586,262.0324 L756.1023,262.0324 Q756.1023,261.1574 755.6336,260.7043 Q755.1804,260.2355 754.3054,260.2355 Q753.4461,260.2355 752.9617,260.7043 Q752.4929,261.1574 752.4929,262.0324 L752.4929,267.4386 Q752.4929,268.298 752.9617,268.7668 Q753.4461,269.2355 754.3054,269.2355 Q755.1804,269.2355 755.6336,268.7668 Q756.1023,268.298 756.1023,267.4386 L758.2586,267.4386 Q758.2586,268.5636 757.7586,269.3918 Q757.2586,270.2043 756.3679,270.6574 Q755.4929,271.1105 754.3054,271.1105 Z " fill="#000000"/><text fill="#000000" font-family="sans-serif" font-size="14" lengthAdjust="spacing" textLength="79.3721" x="771.4024" y="269.5212">ArtDecoSofa</text><line style="stroke:#181818;stroke-width:0.5;" x1="725.08" x2="867.7655" y1="280.4386" y2="280.4386"/><line style="stroke:#181818;stroke-width:0.5;" x1="725.08" x2="867.7655" y1="288.4386" y2="288.4386"/><text fill="#000000" font-family="sans-serif" font-size="14" lengthAdjust="spacing" textLength="132.6855" x="730.08" y="305.5705">+hasCushions(): bool</text><text fill="#000000" font-family="sans-serif" font-size="14" lengthAdjust="spacing" textLength="83.6445" x="730.08" y="321.6691">+lieOn(): void</text><text fill="#000000" font-family="sans-serif" font-size="14" lengthAdjust="spacing" textLength="88.2998" x="730.08" y="337.7677">+style(): string</text></g><!--class ArtDecoCoffeeTable--><g class="entity" data-qualified-name="ArtDecoCoffeeTable" data-source-line="77" id="ent0012"><rect fill="#F1F1F1" height="96.2959" rx="2.5" ry="2.5" style="stroke:#181818;stroke-width:0.5;" width="158.8408" x="7" y="248.4386"/><ellipse cx="22" cy="264.4386" fill="#ADD1B2" rx="11" ry="11" style="stroke:#181818;stroke-width:1;"/><path d="M22.2344,271.1105 Q21.0313,271.1105 20.1406,270.6574 Q19.2656,270.2043 18.7813,269.3918 Q18.2969,268.5636 18.2969,267.4386 L18.2969,262.0324 Q18.2969,260.9074 18.7813,260.0949 Q19.2656,259.2668 20.1406,258.8136 Q21.0313,258.3605 22.2344,258.3605 Q23.4219,258.3605 24.2969,258.8136 Q25.1875,259.2668 25.6875,260.0949 Q26.1875,260.9074 26.1875,262.0324 L24.0313,262.0324 Q24.0313,261.1574 23.5625,260.7043 Q23.1094,260.2355 22.2344,260.2355 Q21.375,260.2355 20.8906,260.7043 Q20.4219,261.1574 20.4219,262.0324 L20.4219,267.4386 Q20.4219,268.298 20.8906,268.7668 Q21.375,269.2355 22.2344,269.2355 Q23.1094,269.2355 23.5625,268.7668 Q24.0313,268.298 24.0313,267.4386 L26.1875,267.4386 Q26.1875,268.5636 25.6875,269.3918 Q25.1875,270.2043 24.2969,270.6574 Q23.4219,271.1105 22.2344,271.1105 Z " fill="#000000"/><text fill="#000000" font-family="sans-serif" font-size="14" lengthAdjust="spacing" textLength="126.8408" x="36" y="269.5212">ArtDecoCoffeeTable</text><line style="stroke:#181818;stroke-width:0.5;" x1="8" x2="164.8408" y1="280.4386" y2="280.4386"/><line style="stroke:#181818;stroke-width:0.5;" x1="8" x2="164.8408" y1="288.4386" y2="288.4386"/><text fill="#000000" font-family="sans-serif" font-size="14" lengthAdjust="spacing" textLength="122.5684" x="13" y="305.5705">+hasSurface(): bool</text><text fill="#000000" font-family="sans-serif" font-size="14" lengthAdjust="spacing" textLength="103.1064" x="13" y="321.6691">+placeOn(): void</text><text fill="#000000" font-family="sans-serif" font-size="14" lengthAdjust="spacing" textLength="88.2998" x="13" y="337.7677">+style(): string</text></g><!--class MuebleriaFactory--><g class="entity" data-qualified-name="MuebleriaFactory" data-source-line="84" id="ent0013"><rect fill="#F1F1F1" height="120.292" rx="2.5" ry="2.5" style="stroke:#181818;stroke-width:0.5;" width="234.1748" x="2305.33" y="44.0986"/><ellipse cx="2364.0917" cy="64.0474" fill="#B4A7E5" rx="11" ry="11" style="stroke:#181818;stroke-width:1;"/><path d="M2360.123,70.5474 L2360.123,68.6255 L2362.623,68.6255 L2362.623,60.063 L2360.123,60.063 L2360.123,58.1411 L2367.2636,58.1411 L2367.2636,60.063 L2364.7636,60.063 L2364.7636,68.6255 L2367.2636,68.6255 L2367.2636,70.5474 L2360.123,70.5474 Z " fill="#000000"/><text fill="#000000" font-family="sans-serif" font-size="12" font-style="italic" lengthAdjust="spacing" textLength="60.041" x="2408.6469" y="60.3545">&#171;Interface&#187;</text><text fill="#000000" font-family="sans-serif" font-size="14" font-style="italic" lengthAdjust="spacing" textLength="108.1514" x="2384.5917" y="76.0293">MuebleriaFactory</text><line style="stroke:#181818;stroke-width:0.5;" x1="2306.33" x2="2538.5048" y1="83.9961" y2="83.9961"/><line style="stroke:#181818;stroke-width:0.5;" x1="2306.33" x2="2538.5048" y1="91.9961" y2="91.9961"/><text fill="#000000" font-family="sans-serif" font-size="14" font-style="italic" lengthAdjust="spacing" textLength="136.5479" x="2311.33" y="109.1279">+createChair(): Chair*</text><text fill="#000000" font-family="sans-serif" font-size="14" font-style="italic" lengthAdjust="spacing" textLength="127.2373" x="2311.33" y="125.2266">+createSofa(): Sofa*</text><text fill="#000000" font-family="sans-serif" font-size="14" font-style="italic" lengthAdjust="spacing" textLength="222.1748" x="2311.33" y="141.3252">+createCoffeeTable(): CoffeeTable*</text><text fill="#000000" font-family="sans-serif" font-size="14" font-style="italic" lengthAdjust="spacing" textLength="132.6514" x="2311.33" y="157.4238">+factoryStyle(): string</text></g><!--class ModernFactory--><g class="entity" data-qualified-name="ModernFactory" data-source-line="92" id="ent0014"><rect fill="#F1F1F1" height="112.3945" rx="2.5" ry="2.5" style="stroke:#181818;stroke-width:0.5;" width="234.1748" x="2619.33" y="240.3986"/><ellipse cx="2685.0951" cy="256.3986" fill="#ADD1B2" rx="11" ry="11" style="stroke:#181818;stroke-width:1;"/><path d="M2685.3295,263.0705 Q2684.1264,263.0705 2683.2358,262.6174 Q2682.3608,262.1643 2681.8764,261.3518 Q2681.392,260.5236 2681.392,259.3986 L2681.392,253.9924 Q2681.392,252.8674 2681.8764,252.0549 Q2682.3608,251.2268 2683.2358,250.7736 Q2684.1264,250.3205 2685.3295,250.3205 Q2686.517,250.3205 2687.392,250.7736 Q2688.2826,251.2268 2688.7826,252.0549 Q2689.2826,252.8674 2689.2826,253.9924 L2687.1264,253.9924 Q2687.1264,253.1174 2686.6576,252.6643 Q2686.2045,252.1955 2685.3295,252.1955 Q2684.4701,252.1955 2683.9858,252.6643 Q2683.517,253.1174 2683.517,253.9924 L2683.517,259.3986 Q2683.517,260.258 2683.9858,260.7268 Q2684.4701,261.1955 2685.3295,261.1955 Q2686.2045,261.1955 2686.6576,260.7268 Q2687.1264,260.258 2687.1264,259.3986 L2689.2826,259.3986 Q2689.2826,260.5236 2688.7826,261.3518 Q2688.2826,262.1643 2687.392,262.6174 Q2686.517,263.0705 2685.3295,263.0705 Z " fill="#000000"/><text fill="#000000" font-family="sans-serif" font-size="14" lengthAdjust="spacing" textLength="94.1445" x="2705.5951" y="261.4812">ModernFactory</text><line style="stroke:#181818;stroke-width:0.5;" x1="2620.33" x2="2852.5048" y1="272.3986" y2="272.3986"/><line style="stroke:#181818;stroke-width:0.5;" x1="2620.33" x2="2852.5048" y1="280.3986" y2="280.3986"/><text fill="#000000" font-family="sans-serif" font-size="14" lengthAdjust="spacing" textLength="136.5479" x="2625.33" y="297.5305">+createChair(): Chair*</text><text fill="#000000" font-family="sans-serif" font-size="14" lengthAdjust="spacing" textLength="127.2373" x="2625.33" y="313.6291">+createSofa(): Sofa*</text><text fill="#000000" font-family="sans-serif" font-size="14" lengthAdjust="spacing" textLength="222.1748" x="2625.33" y="329.7277">+createCoffeeTable(): CoffeeTable*</text><text fill="#000000" font-family="sans-serif" font-size="14" lengthAdjust="spacing" textLength="132.6514" x="2625.33" y="345.8264">+factoryStyle(): string</text></g><!--class VictorianFactory--><g class="entity" data-qualified-name="VictorianFactory" data-source-line="99" id="ent0015"><rect fill="#F1F1F1" height="112.3945" rx="2.5" ry="2.5" style="stroke:#181818;stroke-width:0.5;" width="234.1748" x="2305.33" y="240.3986"/><ellipse cx="2367.5951" cy="256.3986" fill="#ADD1B2" rx="11" ry="11" style="stroke:#181818;stroke-width:1;"/><path d="M2367.8295,263.0705 Q2366.6264,263.0705 2365.7358,262.6174 Q2364.8608,262.1643 2364.3764,261.3518 Q2363.892,260.5236 2363.892,259.3986 L2363.892,253.9924 Q2363.892,252.8674 2364.3764,252.0549 Q2364.8608,251.2268 2365.7358,250.7736 Q2366.6264,250.3205 2367.8295,250.3205 Q2369.017,250.3205 2369.892,250.7736 Q2370.7826,251.2268 2371.2826,252.0549 Q2371.7826,252.8674 2371.7826,253.9924 L2369.6264,253.9924 Q2369.6264,253.1174 2369.1576,252.6643 Q2368.7045,252.1955 2367.8295,252.1955 Q2366.9701,252.1955 2366.4858,252.6643 Q2366.017,253.1174 2366.017,253.9924 L2366.017,259.3986 Q2366.017,260.258 2366.4858,260.7268 Q2366.9701,261.1955 2367.8295,261.1955 Q2368.7045,261.1955 2369.1576,260.7268 Q2369.6264,260.258 2369.6264,259.3986 L2371.7826,259.3986 Q2371.7826,260.5236 2371.2826,261.3518 Q2370.7826,262.1643 2369.892,262.6174 Q2369.017,263.0705 2367.8295,263.0705 Z " fill="#000000"/><text fill="#000000" font-family="sans-serif" font-size="14" lengthAdjust="spacing" textLength="101.1445" x="2388.0951" y="261.4812">VictorianFactory</text><line style="stroke:#181818;stroke-width:0.5;" x1="2306.33" x2="2538.5048" y1="272.3986" y2="272.3986"/><line style="stroke:#181818;stroke-width:0.5;" x1="2306.33" x2="2538.5048" y1="280.3986" y2="280.3986"/><text fill="#000000" font-family="sans-serif" font-size="14" lengthAdjust="spacing" textLength="136.5479" x="2311.33" y="297.5305">+createChair(): Chair*</text><text fill="#000000" font-family="sans-serif" font-size="14" lengthAdjust="spacing" textLength="127.2373" x="2311.33" y="313.6291">+createSofa(): Sofa*</text><text fill="#000000" font-family="sans-serif" font-size="14" lengthAdjust="spacing" textLength="222.1748" x="2311.33" y="329.7277">+createCoffeeTable(): CoffeeTable*</text><text fill="#000000" font-family="sans-serif" font-size="14" lengthAdjust="spacing" textLength="132.6514" x="2311.33" y="345.8264">+factoryStyle(): string</text></g><!--class ArtDecoFactory--><g class="entity" data-qualified-name="ArtDecoFactory" data-source-line="106" id="ent0016"><rect fill="#F1F1F1" height="112.3945" rx="2.5" ry="2.5" style="stroke:#181818;stroke-width:0.5;" width="234.1748" x="1991.33" y="240.3986"/><ellipse cx="2055.5434" cy="256.3986" fill="#ADD1B2" rx="11" ry="11" style="stroke:#181818;stroke-width:1;"/><path d="M2055.7778,263.0705 Q2054.5746,263.0705 2053.684,262.6174 Q2052.809,262.1643 2052.3246,261.3518 Q2051.8403,260.5236 2051.8403,259.3986 L2051.8403,253.9924 Q2051.8403,252.8674 2052.3246,252.0549 Q2052.809,251.2268 2053.684,250.7736 Q2054.5746,250.3205 2055.7778,250.3205 Q2056.9653,250.3205 2057.8403,250.7736 Q2058.7309,251.2268 2059.2309,252.0549 Q2059.7309,252.8674 2059.7309,253.9924 L2057.5746,253.9924 Q2057.5746,253.1174 2057.1059,252.6643 Q2056.6528,252.1955 2055.7778,252.1955 Q2054.9184,252.1955 2054.434,252.6643 Q2053.9653,253.1174 2053.9653,253.9924 L2053.9653,259.3986 Q2053.9653,260.258 2054.434,260.7268 Q2054.9184,261.1955 2055.7778,261.1955 Q2056.6528,261.1955 2057.1059,260.7268 Q2057.5746,260.258 2057.5746,259.3986 L2059.7309,259.3986 Q2059.7309,260.5236 2059.2309,261.3518 Q2058.7309,262.1643 2057.8403,262.6174 Q2056.9653,263.0705 2055.7778,263.0705 Z " fill="#000000"/><text fill="#000000" font-family="sans-serif" font-size="14" lengthAdjust="spacing" textLength="97.248" x="2076.0434" y="261.4812">ArtDecoFactory</text><line style="stroke:#181818;stroke-width:0.5;" x1="1992.33" x2="2224.5048" y1="272.3986" y2="272.3986"/><line style="stroke:#181818;stroke-width:0.5;" x1="1992.33" x2="2224.5048" y1="280.3986" y2="280.3986"/><text fill="#000000" font-family="sans-serif" font-size="14" lengthAdjust="spacing" textLength="136.5479" x="1997.33" y="297.5305">+createChair(): Chair*</text><text fill="#000000" font-family="sans-serif" font-size="14" lengthAdjust="spacing" textLength="127.2373" x="1997.33" y="313.6291">+createSofa(): Sofa*</text><text fill="#000000" font-family="sans-serif" font-size="14" lengthAdjust="spacing" textLength="222.1748" x="1997.33" y="329.7277">+createCoffeeTable(): CoffeeTable*</text><text fill="#000000" font-family="sans-serif" font-size="14" lengthAdjust="spacing" textLength="132.6514" x="1997.33" y="345.8264">+factoryStyle(): string</text></g><!--reverse link Chair to ModernChair--><g class="link" data-entity-1="ent0001" data-entity-2="ent0004" data-link-type="extension" data-source-line="114" id="lnk17"><path codeLine="114" d="M1730.1137,140.4979 C1758.7437,155.7179 1776.22,168.4686 1800.42,194.3986 C1814.83,209.8386 1826.43,229.9386 1835.05,248.1586" fill="none" id="Chair-backto-ModernChair" style="stroke:#181818;stroke-width:1;stroke-dasharray:7,7;"/><polygon fill="none" points="1714.22,132.0486,1727.2973,145.7958,1732.9301,135.2,1714.22,132.0486" style="stroke:#181818;stroke-width:1;stroke-linejoin:miter;stroke-miterlimit:10;"/></g><!--reverse link Chair to VictorianChair--><g class="link" data-entity-1="ent0001" data-entity-2="ent0007" data-link-type="extension" data-source-line="115" id="lnk18"><path codeLine="115" d="M1655.42,174.7586 C1655.42,203.1586 1655.42,220.1986 1655.42,247.9586" fill="none" id="Chair-backto-VictorianChair" style="stroke:#181818;stroke-width:1;stroke-dasharray:7,7;"/><polygon fill="none" points="1655.42,156.7586,1649.42,174.7586,1661.42,174.7586,1655.42,156.7586" style="stroke:#181818;stroke-width:1;stroke-linejoin:miter;stroke-miterlimit:10;"/></g><!--reverse link Chair to ArtDecoChair--><g class="link" data-entity-1="ent0001" data-entity-2="ent0010" data-link-type="extension" data-source-line="116" id="lnk19"><path codeLine="116" d="M1580.7265,139.4367 C1551.4165,154.6167 1533.04,167.7686 1508.42,194.3986 C1494.2,209.7786 1482.98,229.8786 1474.73,248.1086" fill="none" id="Chair-backto-ArtDecoChair" style="stroke:#181818;stroke-width:1;stroke-dasharray:7,7;"/><polygon fill="none" points="1596.71,131.1586,1577.9671,134.1089,1583.4858,144.7645,1596.71,131.1586" style="stroke:#181818;stroke-width:1;stroke-linejoin:miter;stroke-miterlimit:10;"/></g><!--reverse link Sofa to ModernSofa--><g class="link" data-entity-1="ent0002" data-entity-2="ent0005" data-link-type="extension" data-source-line="118" id="lnk20"><path codeLine="118" d="M1110.18,144.3077 C1139.47,159.0877 1156.16,170.6686 1181.42,194.3986 C1197.71,209.6886 1211.73,229.8786 1222.54,248.1986" fill="none" id="Sofa-backto-ModernSofa" style="stroke:#181818;stroke-width:1;stroke-dasharray:7,7;"/><polygon fill="none" points="1094.11,136.1986,1107.4769,149.6643,1112.883,138.951,1094.11,136.1986" style="stroke:#181818;stroke-width:1;stroke-linejoin:miter;stroke-miterlimit:10;"/></g><!--reverse link Sofa to VictorianSofa--><g class="link" data-entity-1="ent0002" data-entity-2="ent0008" data-link-type="extension" data-source-line="119" id="lnk21"><path codeLine="119" d="M1021.42,174.7586 C1021.42,203.1586 1021.42,220.1986 1021.42,247.9586" fill="none" id="Sofa-backto-VictorianSofa" style="stroke:#181818;stroke-width:1;stroke-dasharray:7,7;"/><polygon fill="none" points="1021.42,156.7586,1015.42,174.7586,1027.42,174.7586,1021.42,156.7586" style="stroke:#181818;stroke-width:1;stroke-linejoin:miter;stroke-miterlimit:10;"/></g><!--reverse link Sofa to ArtDecoSofa--><g class="link" data-entity-1="ent0002" data-entity-2="ent0011" data-link-type="extension" data-source-line="120" id="lnk22"><path codeLine="120" d="M946.7863,168.3823 C913.2063,196.7823 885.55,220.1986 852.72,247.9586" fill="none" id="Sofa-backto-ArtDecoSofa" style="stroke:#181818;stroke-width:1;stroke-dasharray:7,7;"/><polygon fill="none" points="960.53,156.7586,942.9117,163.801,950.6608,172.9635,960.53,156.7586" style="stroke:#181818;stroke-width:1;stroke-linejoin:miter;stroke-miterlimit:10;"/></g><!--reverse link CoffeeTable to ModernCoffeeTable--><g class="link" data-entity-1="ent0003" data-entity-2="ent0006" data-link-type="extension" data-source-line="122" id="lnk23"><path codeLine="122" d="M406.1803,167.9723 C441.8403,196.3723 471.75,220.1986 506.61,247.9586" fill="none" id="CoffeeTable-backto-ModernCoffeeTable" style="stroke:#181818;stroke-width:1;stroke-dasharray:7,7;"/><polygon fill="none" points="392.1,156.7586,402.4424,172.6657,409.9181,163.2789,392.1,156.7586" style="stroke:#181818;stroke-width:1;stroke-linejoin:miter;stroke-miterlimit:10;"/></g><!--reverse link CoffeeTable to VictorianCoffeeTable--><g class="link" data-entity-1="ent0003" data-entity-2="ent0009" data-link-type="extension" data-source-line="123" id="lnk24"><path codeLine="123" d="M327.42,174.7586 C327.42,203.1586 327.42,220.1986 327.42,247.9586" fill="none" id="CoffeeTable-backto-VictorianCoffeeTable" style="stroke:#181818;stroke-width:1;stroke-dasharray:7,7;"/><polygon fill="none" points="327.42,156.7586,321.42,174.7586,333.42,174.7586,327.42,156.7586" style="stroke:#181818;stroke-width:1;stroke-linejoin:miter;stroke-miterlimit:10;"/></g><!--reverse link CoffeeTable to ArtDecoCoffeeTable--><g class="link" data-entity-1="ent0003" data-entity-2="ent0012" data-link-type="extension" data-source-line="124" id="lnk25"><path codeLine="124" d="M248.0741,167.9148 C212.1141,196.3148 181.88,220.1986 146.73,247.9586" fill="none" id="CoffeeTable-backto-ArtDecoCoffeeTable" style="stroke:#181818;stroke-width:1;stroke-dasharray:7,7;"/><polygon fill="none" points="262.2,156.7586,244.3554,163.2062,251.7928,172.6234,262.2,156.7586" style="stroke:#181818;stroke-width:1;stroke-linejoin:miter;stroke-miterlimit:10;"/></g><!--reverse link MuebleriaFactory to ModernFactory--><g class="link" data-entity-1="ent0013" data-entity-2="ent0014" data-link-type="extension" data-source-line="126" id="lnk26"><path codeLine="126" d="M2535.8733,174.0185 C2575.5533,198.0685 2605.71,216.3586 2644.72,239.9986" fill="none" id="MuebleriaFactory-backto-ModernFactory" style="stroke:#181818;stroke-width:1;stroke-dasharray:7,7;"/><polygon fill="none" points="2520.48,164.6886,2532.7633,179.1496,2538.9833,168.8874,2520.48,164.6886" style="stroke:#181818;stroke-width:1;stroke-linejoin:miter;stroke-miterlimit:10;"/></g><!--reverse link MuebleriaFactory to VictorianFactory--><g class="link" data-entity-1="ent0013" data-entity-2="ent0015" data-link-type="extension" data-source-line="127" id="lnk27"><path codeLine="127" d="M2422.42,182.6886 C2422.42,206.7986 2422.42,216.4786 2422.42,240.1686" fill="none" id="MuebleriaFactory-backto-VictorianFactory" style="stroke:#181818;stroke-width:1;stroke-dasharray:7,7;"/><polygon fill="none" points="2422.42,164.6886,2416.42,182.6886,2428.42,182.6886,2422.42,164.6886" style="stroke:#181818;stroke-width:1;stroke-linejoin:miter;stroke-miterlimit:10;"/></g><!--reverse link MuebleriaFactory to ArtDecoFactory--><g class="link" data-entity-1="ent0013" data-entity-2="ent0016" data-link-type="extension" data-source-line="128" id="lnk28"><path codeLine="128" d="M2308.9667,174.0185 C2269.2867,198.0685 2239.13,216.3586 2200.12,239.9986" fill="none" id="MuebleriaFactory-backto-ArtDecoFactory" style="stroke:#181818;stroke-width:1;stroke-dasharray:7,7;"/><polygon fill="none" points="2324.36,164.6886,2305.8567,168.8874,2312.0767,179.1496,2324.36,164.6886" style="stroke:#181818;stroke-width:1;stroke-linejoin:miter;stroke-miterlimit:10;"/></g><!--reverse link ModernChair to ModernFactory--><g class="link" data-entity-1="ent0004" data-entity-2="ent0014" data-link-type="dependency" data-source-line="130" id="lnk30"><path codeLine="130" d="M1916.5689,255.1116 C1929.0789,248.3516 1938.13,244.5586 1951.42,240.3986 C1951.42,240.3986 2579.42,240.3986 2579.42,240.3986 C2592.38,243.4586 2605.75,247.2286 2618.97,251.3586" fill="none" id="ModernChair-backto-ModernFactory" style="stroke:#181818;stroke-width:1;stroke-dasharray:7,7;"/><polygon fill="#181818" points="1912.17,257.4886,1921.9895,256.7291,1916.5689,255.1116,1918.1863,249.691,1912.17,257.4886" style="stroke:#181818;stroke-width:1;stroke-linejoin:miter;stroke-miterlimit:10;"/><text fill="#000000" font-family="sans-serif" font-size="13" lengthAdjust="spacing" textLength="25.2891" x="2301.92" y="207.5925">crea</text></g><!--reverse link ModernSofa to ModernFactory--><g class="link" data-entity-1="ent0005" data-entity-2="ent0014" data-link-type="dependency" data-source-line="131" id="lnk32"><path codeLine="131" d="M1323.8141,253.2546 C1336.8541,247.3446 1346.01,244.0886 1359.42,240.3986 C1529.81,193.4386 1579.31,216.8286 1755.92,210.0986 C1938.91,203.1086 2399.62,205.6486 2579.42,240.3986 C2592.5,242.9186 2605.94,246.3586 2619.2,250.2886" fill="none" id="ModernSofa-backto-ModernFactory" style="stroke:#181818;stroke-width:1;stroke-dasharray:7,7;"/><polygon fill="#181818" points="1319.26,255.3186,1329.1086,255.2467,1323.8141,253.2546,1325.8062,247.9601,1319.26,255.3186" style="stroke:#181818;stroke-width:1;stroke-linejoin:miter;stroke-miterlimit:10;"/><text fill="#000000" font-family="sans-serif" font-size="13" lengthAdjust="spacing" textLength="25.2891" x="1756.92" y="207.5925">crea</text></g><!--reverse link ModernCoffeeTable to ModernFactory--><g class="link" data-entity-1="ent0006" data-entity-2="ent0014" data-link-type="dependency" data-source-line="132" id="lnk34"><path codeLine="132" d="M649.0726,252.2252 C662.1026,246.6952 671.11,243.7386 684.42,240.3986 C955.64,172.1986 1033.34,216.8286 1312.92,210.0986 C1594.36,203.3086 2302.65,188.8586 2579.42,240.3986 C2592.51,242.8286 2605.97,246.2086 2619.24,250.1086" fill="none" id="ModernCoffeeTable-backto-ModernFactory" style="stroke:#181818;stroke-width:1;stroke-dasharray:7,7;"/><polygon fill="#181818" points="644.47,254.1786,654.3175,254.3447,649.0726,252.2252,651.192,246.9804,644.47,254.1786" style="stroke:#181818;stroke-width:1;stroke-linejoin:miter;stroke-miterlimit:10;"/><text fill="#000000" font-family="sans-serif" font-size="13" lengthAdjust="spacing" textLength="25.2891" x="1313.92" y="207.5925">crea</text></g><!--reverse link VictorianChair to VictorianFactory--><g class="link" data-entity-1="ent0007" data-entity-2="ent0015" data-link-type="dependency" data-source-line="134" id="lnk36"><path codeLine="134" d="M1681.9829,244.138 C1692.0129,229.088 1702.47,218.4286 1718.92,210.0986 C1773.18,182.6186 2205.83,228.2486 2265.42,240.3986 C2278.47,243.0486 2291.9,246.5686 2305.15,250.5486" fill="none" id="VictorianChair-backto-VictorianFactory" style="stroke:#181818;stroke-width:1;stroke-dasharray:7,7;"/><polygon fill="#181818" points="1679.21,248.2986,1687.5297,243.0277,1681.9829,244.138,1680.8726,238.5911,1679.21,248.2986" style="stroke:#181818;stroke-width:1;stroke-linejoin:miter;stroke-miterlimit:10;"/><text fill="#000000" font-family="sans-serif" font-size="13" lengthAdjust="spacing" textLength="25.2891" x="1719.92" y="207.5925">crea</text></g><!--reverse link VictorianSofa to VictorianFactory--><g class="link" data-entity-1="ent0008" data-entity-2="ent0015" data-link-type="dependency" data-source-line="135" id="lnk38"><path codeLine="135" d="M1098.5116,253.4291 C1111.6416,247.4591 1120.91,244.1386 1134.42,240.3986 C1298.33,194.9586 1345.96,216.8286 1515.92,210.0986 C1849.04,196.8886 1938.22,176.5086 2265.42,240.3986 C2278.49,242.9486 2291.93,246.3986 2305.19,250.3386" fill="none" id="VictorianSofa-backto-VictorianFactory" style="stroke:#181818;stroke-width:1;stroke-dasharray:7,7;"/><polygon fill="#181818" points="1093.96,255.4986,1103.8085,255.4147,1098.5116,253.4291,1100.4972,248.1322,1093.96,255.4986" style="stroke:#181818;stroke-width:1;stroke-linejoin:miter;stroke-miterlimit:10;"/><text fill="#000000" font-family="sans-serif" font-size="13" lengthAdjust="spacing" textLength="25.2891" x="1516.92" y="207.5925">crea</text></g><!--reverse link VictorianCoffeeTable to VictorianFactory--><g class="link" data-entity-1="ent0009" data-entity-2="ent0015" data-link-type="dependency" data-source-line="136" id="lnk40"><path codeLine="136" d="M413.8081,251.5563 C426.6481,246.3063 435.37,243.5786 448.42,240.3986 C749.45,166.9986 835.15,216.8286 1144.92,210.0986 C1393.95,204.6786 2020.61,194.3986 2265.42,240.3986 C2278.51,242.8486 2291.96,246.2386 2305.23,250.1486" fill="none" id="VictorianCoffeeTable-backto-VictorianFactory" style="stroke:#181818;stroke-width:1;stroke-dasharray:7,7;"/><polygon fill="#181818" points="409.18,253.4486,419.0244,253.7449,413.8081,251.5563,415.9967,246.34,409.18,253.4486" style="stroke:#181818;stroke-width:1;stroke-linejoin:miter;stroke-miterlimit:10;"/><text fill="#000000" font-family="sans-serif" font-size="13" lengthAdjust="spacing" textLength="25.2891" x="1145.92" y="207.5925">crea</text></g><!--reverse link ArtDecoChair to ArtDecoFactory--><g class="link" data-entity-1="ent0010" data-entity-2="ent0016" data-link-type="dependency" data-source-line="138" id="lnk42"><path codeLine="138" d="M1510.5028,244.8162 C1529.0928,229.6362 1547.56,217.9786 1570.92,210.0986 C1582.29,206.2586 1585.93,209.5786 1597.92,210.0986 C1755.46,216.8286 1797.35,206.8086 1951.42,240.3986 C1964.43,243.2286 1977.84,246.8586 1991.07,250.9086" fill="none" id="ArtDecoChair-backto-ArtDecoFactory" style="stroke:#181818;stroke-width:1;stroke-dasharray:7,7;"/><polygon fill="#181818" points="1506.63,247.9786,1516.1311,245.3845,1510.5028,244.8162,1511.0712,239.188,1506.63,247.9786" style="stroke:#181818;stroke-width:1;stroke-linejoin:miter;stroke-miterlimit:10;"/><text fill="#000000" font-family="sans-serif" font-size="13" lengthAdjust="spacing" textLength="25.2891" x="1571.92" y="207.5925">crea</text></g><!--reverse link ArtDecoSofa to ArtDecoFactory--><g class="link" data-entity-1="ent0011" data-entity-2="ent0016" data-link-type="dependency" data-source-line="139" id="lnk44"><path codeLine="139" d="M873.5216,253.4591 C886.6516,247.4891 895.91,244.1586 909.42,240.3986 C1132.47,178.2086 1724.26,195.4686 1951.42,240.3986 C1964.48,242.9786 1977.92,246.4486 1991.18,250.3986" fill="none" id="ArtDecoSofa-backto-ArtDecoFactory" style="stroke:#181818;stroke-width:1;stroke-dasharray:7,7;"/><polygon fill="#181818" points="868.97,255.5286,878.8185,255.4447,873.5216,253.4591,875.5072,248.1622,868.97,255.5286" style="stroke:#181818;stroke-width:1;stroke-linejoin:miter;stroke-miterlimit:10;"/><text fill="#000000" font-family="sans-serif" font-size="13" lengthAdjust="spacing" textLength="25.2891" x="1277.92" y="207.5925">crea</text></g><!--reverse link ArtDecoCoffeeTable to ArtDecoFactory--><g class="link" data-entity-1="ent0012" data-entity-2="ent0016" data-link-type="dependency" data-source-line="140" id="lnk46"><path codeLine="140" d="M170.7478,251.9613 C183.8978,246.5013 193,243.6186 206.42,240.3986 C394.94,195.0686 1761.03,203.7386 1951.42,240.3986 C1964.5,242.9086 1977.94,246.3386 1991.21,250.2686" fill="none" id="ArtDecoCoffeeTable-backto-ArtDecoFactory" style="stroke:#181818;stroke-width:1;stroke-dasharray:7,7;"/><polygon fill="#181818" points="166.13,253.8786,175.9759,254.1216,170.7478,251.9613,172.9081,246.7332,166.13,253.8786" style="stroke:#181818;stroke-width:1;stroke-linejoin:miter;stroke-miterlimit:10;"/><text fill="#000000" font-family="sans-serif" font-size="13" lengthAdjust="spacing" textLength="25.2891" x="1098.92" y="207.5925">crea</text></g><?plantuml-src pLLBRjim4Dtp5BDhqW96LaKGn0OOoG44n5OXkTdJCcKJKII3f0kaQO0UeYViIKhgIubIh1JkPsDBCqypZsyuC-A1fNl2oID42H42IydP-Y2f5sLfoBvIk42YXgJPXWgwXqlJo4dwe8qVBn2IJ2OKN4QsoaDWGy5HKQc0dzz_05uBoKaauLRzPFm9pXO7kaueP-GSeNSmdKxXK-2xdvsL7mA-2LS1pX-L0x5KKXwJI4NS4SRX-jghBBCPF2E03_1CoWmli2FYZcx5sVaLhBCiwRe5atwgdLyojh6SyYcXsgaCBDsY5sHa3xEOZ4Zk7CIEPUaWWOJHtoJWP75CwOeeuKRm20-vTuZ6Fb7EDn7fbidnbqumrq-wn0lVdGVBl63vTOA5kZ4yBKfMyEkhZ5sEdincmBmATRnUiMs5ZyGqXQr3z-dN9zgRbRhtb37mi2dMFTDzmSWfzQfZdbQoXkfVLGq7AtVk-8Pcc4kNHja95IiZdbQlYkOVKUiMtmIUW-kHYJiJinwprU0zCZSYJecakQGwNVxmlX-aLT8O_Jy0CSwSHsjUhG_YWbzuvA3rhS2XDMgg8nQ76Zx94Frnd8U9TjhZ_w1Jthv_JQOeOZ2_muxdB-T5ySfr_cqoCPU5QMwFHTDZDZz2nMfk0kbtmzYQX8RTw7U4MjlLuDIORKZVBBHHzWH0o6xC9cLf6i1qBzW0h5rubR3L8vE4nd8oQotfgxpAhm9pwKRWJ0bAEB8Qe_gai_jA_76uIMP4y1vAdUQelcajbXBxEjIaSYIeJUCN?></g></svg>