<svg xmlns="http://www.w3.org/2000/svg" xmlns:xlink="http://www.w3.org/1999/xlink" contentStyleType="text/css" data-diagram-type="SEQUENCE" height="1304px" preserveAspectRatio="none" style="width:1005px;height:1304px;background:#FEFEFE;" version="1.1" viewBox="0 0 1005 1304" width="1005px" zoomAndPan="magnify"><?plantuml 1.2026.3?><defs/><g><rect fill="#FEFEFE" height="1304" style="stroke:none;stroke-width:1;" width="1005" x="0" y="0"/><rect fill="none" height="131.4438" style="stroke:#000000;stroke-width:1.5;" width="457.3228" x="10" y="483.2783"/><g class="participant-lifeline" data-entity-uid="part1" data-qualified-name="recep" data-source-line="2" id="part1-lifeline"><g><title>Recepcionista</title><rect fill="#000000" fill-opacity="0.00000" height="1141.4956" width="8" x="62.9688" y="81.0986"/><line style="stroke:#181818;stroke-width:0.5;stroke-dasharray:5,5;" x1="66" x2="66" y1="81.0986" y2="1222.5942"/></g></g><g class="participant-lifeline" data-entity-uid="part2" data-qualified-name="pest" data-source-line="3" id="part2-lifeline"><g><title>PestaniaTurnos</title><rect fill="#000000" fill-opacity="0.00000" height="1141.4956" width="8" x="339.5674" y="81.0986"/><line style="stroke:#181818;stroke-width:0.5;stroke-dasharray:5,5;" x1="343.54" x2="343.54" y1="81.0986" y2="1222.5942"/></g></g><g class="participant-lifeline" data-entity-uid="part3" data-qualified-name="dlg" data-source-line="4" id="part3-lifeline"><g><title>DialogoAsignarTurno</title><rect fill="#000000" fill-opacity="0.00000" height="1141.4956" width="8" x="628.0615" y="81.0986"/><line style="stroke:#181818;stroke-width:0.5;stroke-dasharray:5,5;" x1="631.3032" x2="631.3032" y1="81.0986" y2="1222.5942"/></g></g><g class="participant-lifeline" data-entity-uid="part4" data-qualified-name="db" data-source-line="5" id="part4-lifeline"><g><title>Consultorio</title><rect fill="#000000" fill-opacity="0.00000" height="1141.4956" width="8" x="753.2266" y="81.0986"/><line style="stroke:#181818;stroke-width:0.5;stroke-dasharray:5,5;" x1="756.8198" x2="756.8198" y1="81.0986" y2="1222.5942"/></g></g><g class="participant-lifeline" data-entity-uid="part5" data-qualified-name="sql" data-source-line="6" id="part5-lifeline"><g><title>SQLite</title><rect fill="#000000" fill-opacity="0.00000" height="1141.4956" width="8" x="932.1284" y="81.0986"/><line style="stroke:#181818;stroke-width:0.5;stroke-dasharray:5,5;" x1="935.7285" x2="935.7285" y1="81.0986" y2="1222.5942"/></g></g><g class="participant participant-head" data-entity-uid="part1" data-qualified-name="recep" data-source-line="2" id="part1-head"><text fill="#000000" font-family="sans-serif" font-size="14" lengthAdjust="spacing" textLength="87.9375" x="20" y="78.1318">Recepcionista</text><ellipse cx="66.9688" cy="13.5" fill="#E2E2F0" rx="8" ry="8" style="stroke:#181818;stroke-width:0.5;"/><path d="M66.9688,21.5 L66.9688,48.5 M53.9688,29.5 L79.9688,29.5 M66.9688,48.5 L53.9688,63.5 M66.9688,48.5 L79.9688,63.5" fill="none" style="stroke:#181818;stroke-width:0.5;"/></g><g class="participant participant-tail" data-entity-uid="part1" data-qualified-name="recep" data-source-line="2" id="part1-tail"><text fill="#000000" font-family="sans-serif" font-size="14" lengthAdjust="spacing" textLength="87.9375" x="20" y="1234.7261">Recepcionista</text><ellipse cx="66.9688" cy="1246.1929" fill="#E2E2F0" rx="8" ry="8" style="stroke:#181818;stroke-width:0.5;"/><path d="M66.9688,1254.1929 L66.9688,1281.1929 M53.9688,1262.1929 L79.9688,1262.1929 M66.9688,1281.1929 L53.9688,1296.1929 M66.9688,1281.1929 L79.9688,1296.1929" fill="none" style="stroke:#181818;stroke-width:0.5;"/></g><g class="participant participant-head" data-entity-uid="part2" data-qualified-name="pest" data-source-line="3" id="part2-head"><rect fill="#E2E2F0" height="30.0986" rx="2.5" ry="2.5" style="stroke:#181818;stroke-width:0.5;" width="112.0547" x="287.54" y="50"/><text fill="#000000" font-family="sans-serif" font-size="14" lengthAdjust="spacing" textLength="98.0547" x="294.54" y="70.1318">PestaniaTurnos</text></g><g class="participant participant-tail" data-entity-uid="part2" data-qualified-name="pest" data-source-line="3" id="part2-tail"><rect fill="#E2E2F0" height="30.0986" rx="2.5" ry="2.5" style="stroke:#181818;stroke-width:0.5;" width="112.0547" x="287.54" y="1221.5942"/><text fill="#000000" font-family="sans-serif" font-size="14" lengthAdjust="spacing" textLength="98.0547" x="294.54" y="1241.7261">PestaniaTurnos</text></g><g class="participant participant-head" data-entity-uid="part3" data-qualified-name="dlg" data-source-line="4" id="part3-head"><rect fill="#E2E2F0" height="30.0986" rx="2.5" ry="2.5" style="stroke:#181818;stroke-width:0.5;" width="145.5166" x="559.3032" y="50"/><text fill="#000000" font-family="sans-serif" font-size="14" lengthAdjust="spacing" textLength="131.5166" x="566.3032" y="70.1318">DialogoAsignarTurno</text></g><g class="participant participant-tail" data-entity-uid="part3" data-qualified-name="dlg" data-source-line="4" id="part3-tail"><rect fill="#E2E2F0" height="30.0986" rx="2.5" ry="2.5" style="stroke:#181818;stroke-width:0.5;" width="145.5166" x="559.3032" y="1221.5942"/><text fill="#000000" font-family="sans-serif" font-size="14" lengthAdjust="spacing" textLength="131.5166" x="566.3032" y="1241.7261">DialogoAsignarTurno</text></g><g class="participant participant-head" data-entity-uid="part4" data-qualified-name="db" data-source-line="5" id="part4-head"><rect fill="#E2E2F0" height="30.0986" rx="2.5" ry="2.5" style="stroke:#181818;stroke-width:0.5;" width="84.8135" x="714.8198" y="50"/><text fill="#000000" font-family="sans-serif" font-size="14" lengthAdjust="spacing" textLength="70.8135" x="721.8198" y="70.1318">Consultorio</text></g><g class="participant participant-tail" data-entity-uid="part4" data-qualified-name="db" data-source-line="5" id="part4-tail"><rect fill="#E2E2F0" height="30.0986" rx="2.5" ry="2.5" style="stroke:#181818;stroke-width:0.5;" width="84.8135" x="714.8198" y="1221.5942"/><text fill="#000000" font-family="sans-serif" font-size="14" lengthAdjust="spacing" textLength="70.8135" x="721.8198" y="1241.7261">Consultorio</text></g><g class="participant participant-head" data-entity-uid="part5" data-qualified-name="sql" data-source-line="6" id="part5-head"><text fill="#000000" font-family="sans-serif" font-size="14" lengthAdjust="spacing" textLength="42.7998" x="911.7285" y="78.1318">SQLite</text><path d="M918.1284,29 C918.1284,19 936.1284,19 936.1284,19 C936.1284,19 954.1284,19 954.1284,29 L954.1284,55 C954.1284,65 936.1284,65 936.1284,65 C936.1284,65 918.1284,65 918.1284,55 L918.1284,29" fill="#E2E2F0" style="stroke:#181818;stroke-width:0.5;"/><path d="M918.1284,29 C918.1284,39 936.1284,39 936.1284,39 C936.1284,39 954.1284,39 954.1284,29" fill="none" style="stroke:#181818;stroke-width:0.5;"/></g><g class="participant participant-tail" data-entity-uid="part5" data-qualified-name="sql" data-source-line="6" id="part5-tail"><text fill="#000000" font-family="sans-serif" font-size="14" lengthAdjust="spacing" textLength="42.7998" x="911.7285" y="1234.7261">SQLite</text><path d="M918.1284,1247.6929 C918.1284,1237.6929 936.1284,1237.6929 936.1284,1237.6929 C936.1284,1237.6929 954.1284,1237.6929 954.1284,1247.6929 L954.1284,1273.6929 C954.1284,1283.6929 936.1284,1283.6929 936.1284,1283.6929 C936.1284,1283.6929 918.1284,1283.6929 918.1284,1273.6929 L918.1284,1247.6929" fill="#E2E2F0" style="stroke:#181818;stroke-width:0.5;"/><path d="M918.1284,1247.6929 C918.1284,1257.6929 936.1284,1257.6929 936.1284,1257.6929 C936.1284,1257.6929 954.1284,1257.6929 954.1284,1247.6929" fill="none" style="stroke:#181818;stroke-width:0.5;"/></g><rect fill="#EEEEEE" height="3" style="stroke:#EEEEEE;stroke-width:1;" width="999.9253" x="0" y="111.573"/><line style="stroke:#000000;stroke-width:1;" x1="0" x2="999.9253" y1="111.573" y2="111.573"/><line style="stroke:#000000;stroke-width:1;" x1="0" x2="999.9253" y1="114.573" y2="114.573"/><rect fill="#EEEEEE" height="22.9487" style="stroke:#000000;stroke-width:2;" width="106.4473" x="446.739" y="101.0986"/><text fill="#000000" font-family="sans-serif" font-size="13" font-weight="700" lengthAdjust="spacing" textLength="88.8354" x="452.739" y="117.2925">Asignar Turno</text><g class="message" data-entity-1="part1" data-entity-2="part2" data-source-line="10" id="msg1"><polygon fill="#181818" points="331.5674,150.9961,341.5674,154.9961,331.5674,158.9961,335.5674,154.9961" style="stroke:#181818;stroke-width:1;"/><line style="stroke:#181818;stroke-width:1;" x1="66.9688" x2="337.5674" y1="154.9961" y2="154.9961"/><text fill="#000000" font-family="sans-serif" font-size="13" lengthAdjust="spacing" textLength="145.7993" x="73.9688" y="150.2412">Presiona "Asignar Turno"</text></g><g class="message" data-entity-1="part2" data-entity-2="part3" data-source-line="11" id="msg2"><polygon fill="#181818" points="620.0615,179.9448,630.0615,183.9448,620.0615,187.9448,624.0615,183.9448" style="stroke:#181818;stroke-width:1;"/><line style="stroke:#181818;stroke-width:1;" x1="343.5674" x2="626.0615" y1="183.9448" y2="183.9448"/><text fill="#000000" font-family="sans-serif" font-size="13" lengthAdjust="spacing" textLength="264.4941" x="350.5674" y="179.1899">DialogoAsignarTurno(pacientes, odontologos)</text></g><g class="message" data-entity-1="part3" data-entity-2="part1" data-source-line="12" id="msg3"><polygon fill="#181818" points="77.9688,223.8423,67.9688,227.8423,77.9688,231.8423,73.9688,227.8423" style="stroke:#181818;stroke-width:1;"/><line style="stroke:#181818;stroke-width:1;" x1="71.9688" x2="631.0615" y1="227.8423" y2="227.8423"/><text fill="#000000" font-family="sans-serif" font-size="13" lengthAdjust="spacing" textLength="193.6733" x="83.9688" y="208.1387">Formulario: paciente, odont&#243;logo,</text><text fill="#000000" font-family="sans-serif" font-size="13" lengthAdjust="spacing" textLength="110.5571" x="83.9688" y="223.0874">fecha, hora, motivo</text></g><g class="message" data-entity-1="part1" data-entity-2="part3" data-source-line="13" id="msg4"><polygon fill="#181818" points="620.0615,252.791,630.0615,256.791,620.0615,260.791,624.0615,256.791" style="stroke:#181818;stroke-width:1;"/><line style="stroke:#181818;stroke-width:1;" x1="66.9688" x2="626.0615" y1="256.791" y2="256.791"/><text fill="#000000" font-family="sans-serif" font-size="13" lengthAdjust="spacing" textLength="166.918" x="73.9688" y="252.0361">Completa y presiona Asignar</text></g><g class="message" data-entity-1="part3" data-entity-2="part2" data-source-line="14" id="msg5"><polygon fill="#181818" points="354.5674,281.7397,344.5674,285.7397,354.5674,289.7397,350.5674,285.7397" style="stroke:#181818;stroke-width:1;"/><line style="stroke:#181818;stroke-width:1;" x1="348.5674" x2="631.0615" y1="285.7397" y2="285.7397"/><text fill="#000000" font-family="sans-serif" font-size="13" lengthAdjust="spacing" textLength="101.8735" x="360.5674" y="280.9849">return datos (dict)</text></g><g class="message" data-entity-1="part2" data-entity-2="part4" data-source-line="16" id="msg6"><polygon fill="#181818" points="745.2266,366.009,755.2266,370.009,745.2266,374.009,749.2266,370.009" style="stroke:#181818;stroke-width:1;"/><line style="stroke:#181818;stroke-width:1;" x1="343.5674" x2="751.2266" y1="370.009" y2="370.009"/><text fill="#000000" font-family="sans-serif" font-size="13" lengthAdjust="spacing" textLength="83.8271" x="350.5674" y="335.3567">asignar_turno(</text><text fill="#000000" font-family="sans-serif" font-size="13" lengthAdjust="spacing" textLength="159.0215" x="357.791" y="350.3054">paciente_id, odontologo_id,</text><text fill="#000000" font-family="sans-serif" font-size="13" lengthAdjust="spacing" textLength="114.8862" x="357.791" y="365.2542">fecha, hora, motivo)</text></g><path d="M762,298.7397 L762,397.7397 L909,397.7397 L909,308.7397 L899,298.7397 L762,298.7397" fill="#FEFFDD" style="stroke:#181818;stroke-width:0.5;"/><path d="M899,298.7397 L899,308.7397 L909,308.7397 L899,298.7397" fill="#FEFFDD" style="stroke:#181818;stroke-width:0.5;"/><text fill="#000000" font-family="sans-serif" font-size="13" lengthAdjust="spacing" textLength="117.7935" x="768" y="315.9336">Internamente valida:</text><text fill="#000000" font-family="sans-serif" font-size="13" lengthAdjust="spacing" textLength="102.6162" x="768" y="330.8823">1. Paciente activo</text><text fill="#000000" font-family="sans-serif" font-size="13" lengthAdjust="spacing" textLength="126.4644" x="768" y="345.8311">2. Tel&#233;fono registrado</text><text fill="#000000" font-family="sans-serif" font-size="13" lengthAdjust="spacing" textLength="119.2471" x="768" y="360.7798">3. Odont&#243;logo existe</text><text fill="#000000" font-family="sans-serif" font-size="13" lengthAdjust="spacing" textLength="95.3926" x="768" y="375.7285">4. Disponibilidad</text><text fill="#000000" font-family="sans-serif" font-size="13" lengthAdjust="spacing" textLength="117.0889" x="768" y="390.6772">5. Estado Pendiente</text><g class="message" data-entity-1="part4" data-entity-2="part5" data-source-line="18" id="msg8"><polygon fill="#181818" points="924.1284,435.3296,934.1284,439.3296,924.1284,443.3296,928.1284,439.3296" style="stroke:#181818;stroke-width:1;"/><line style="stroke:#181818;stroke-width:1;" x1="757.2266" x2="930.1284" y1="439.3296" y2="439.3296"/><text fill="#000000" font-family="sans-serif" font-size="13" lengthAdjust="spacing" textLength="130.0254" x="764.2266" y="419.626">INSERT INTO turno ...</text><text fill="#000000" font-family="sans-serif" font-size="13" lengthAdjust="spacing" textLength="118.7964" x="764.2266" y="434.5747">(estado='Pendiente')</text></g><g class="message" data-entity-1="part4" data-entity-2="part2" data-source-line="19" id="msg9"><polygon fill="#181818" points="354.5674,464.2783,344.5674,468.2783,354.5674,472.2783,350.5674,468.2783" style="stroke:#181818;stroke-width:1;"/><line style="stroke:#181818;stroke-width:1;" x1="348.5674" x2="756.2266" y1="468.2783" y2="468.2783"/><text fill="#000000" font-family="sans-serif" font-size="13" lengthAdjust="spacing" textLength="71.5317" x="360.5674" y="463.5234">return Turno</text></g><path d="M10,483.2783 L70.1709,483.2783 L70.1709,490.2271 L60.1709,500.2271 L10,500.2271 L10,483.2783" fill="#EEEEEE" style="stroke:#000000;stroke-width:1.5;"/><rect fill="none" height="131.4438" style="stroke:#000000;stroke-width:1.5;" width="457.3228" x="10" y="483.2783"/><text fill="#000000" font-family="sans-serif" font-size="13" font-weight="700" lengthAdjust="spacing" textLength="15.1709" x="25" y="496.4722">alt</text><text fill="#000000" font-family="sans-serif" font-size="11" font-weight="700" lengthAdjust="spacing" textLength="34.2192" x="85.1709" y="495.5962">[&#201;xito]</text><g class="message" data-entity-1="part2" data-entity-2="part2" data-source-line="22" id="msg10"><line style="stroke:#181818;stroke-width:1;" x1="343.5674" x2="385.5674" y1="521.1758" y2="521.1758"/><line style="stroke:#181818;stroke-width:1;" x1="385.5674" x2="385.5674" y1="521.1758" y2="534.1758"/><line style="stroke:#181818;stroke-width:1;" x1="344.5674" x2="385.5674" y1="534.1758" y2="534.1758"/><polygon fill="#181818" points="354.5674,530.1758,344.5674,534.1758,354.5674,538.1758,350.5674,534.1758" style="stroke:#181818;stroke-width:1;"/><text fill="#000000" font-family="sans-serif" font-size="13" lengthAdjust="spacing" textLength="104.7554" x="350.5674" y="516.4209">refrescar_listado()</text></g><g class="message" data-entity-1="part2" data-entity-2="part1" data-source-line="23" id="msg11"><polygon fill="#181818" points="77.9688,559.1245,67.9688,563.1245,77.9688,567.1245,73.9688,563.1245" style="stroke:#181818;stroke-width:1;"/><line style="stroke:#181818;stroke-width:1;" x1="71.9688" x2="342.5674" y1="563.1245" y2="563.1245"/><text fill="#000000" font-family="sans-serif" font-size="13" lengthAdjust="spacing" textLength="99.5693" x="83.9688" y="558.3696">"Turno asignado"</text></g><line style="stroke:#000000;stroke-width:1;stroke-dasharray:2,2;" x1="10" x2="467.3228" y1="572.1245" y2="572.1245"/><text fill="#000000" font-family="sans-serif" font-size="11" font-weight="700" lengthAdjust="spacing" textLength="91.0776" x="15" y="582.4424">[Error validaci&#243;n]</text><g class="message" data-entity-1="part2" data-entity-2="part1" data-source-line="25" id="msg12"><polygon fill="#181818" points="77.9688,602.7222,67.9688,606.7222,77.9688,610.7222,73.9688,606.7222" style="stroke:#181818;stroke-width:1;"/><line style="stroke:#181818;stroke-width:1;" x1="71.9688" x2="342.5674" y1="606.7222" y2="606.7222"/><text fill="#000000" font-family="sans-serif" font-size="13" lengthAdjust="spacing" textLength="252.5986" x="83.9688" y="601.9673">"Tel&#233;fono requerido" / "Superposici&#243;n" / etc.</text></g><rect fill="#EEEEEE" height="3" style="stroke:#EEEEEE;stroke-width:1;" width="999.9253" x="0" y="642.1965"/><line style="stroke:#000000;stroke-width:1;" x1="0" x2="999.9253" y1="642.1965" y2="642.1965"/><line style="stroke:#000000;stroke-width:1;" x1="0" x2="999.9253" y1="645.1965" y2="645.1965"/><rect fill="#EEEEEE" height="22.9487" style="stroke:#000000;stroke-width:2;" width="120.1646" x="439.8804" y="631.7222"/><text fill="#000000" font-family="sans-serif" font-size="13" font-weight="700" lengthAdjust="spacing" textLength="102.5527" x="445.8804" y="647.916">Confirmar Turno</text><g class="message" data-entity-1="part1" data-entity-2="part2" data-source-line="30" id="msg13"><polygon fill="#181818" points="331.5674,696.5684,341.5674,700.5684,331.5674,704.5684,335.5674,700.5684" style="stroke:#181818;stroke-width:1;"/><line style="stroke:#181818;stroke-width:1;" x1="66.9688" x2="337.5674" y1="700.5684" y2="700.5684"/><text fill="#000000" font-family="sans-serif" font-size="13" lengthAdjust="spacing" textLength="159.0024" x="73.9688" y="680.8647">Selecciona turno Pendiente</text><text fill="#000000" font-family="sans-serif" font-size="13" lengthAdjust="spacing" textLength="120.6563" x="73.9688" y="695.8135">y presiona Confirmar</text></g><g class="message" data-entity-1="part2" data-entity-2="part4" data-source-line="31" id="msg14"><polygon fill="#181818" points="745.2266,735.9915,755.2266,739.9915,745.2266,743.9915,749.2266,739.9915" style="stroke:#181818;stroke-width:1;"/><line style="stroke:#181818;stroke-width:1;" x1="343.5674" x2="751.2266" y1="739.9915" y2="739.9915"/><text fill="#000000" font-family="sans-serif" font-size="13" lengthAdjust="spacing" textLength="109.8145" x="350.5674" y="735.2366">confirmar_turno(id)</text></g><path d="M762,713.5684 L762,752.5684 L928,752.5684 L928,723.5684 L918,713.5684 L762,713.5684" fill="#FEFFDD" style="stroke:#181818;stroke-width:0.5;"/><path d="M918,713.5684 L918,723.5684 L928,723.5684 L918,713.5684" fill="#FEFFDD" style="stroke:#181818;stroke-width:0.5;"/><text fill="#000000" font-family="sans-serif" font-size="13" lengthAdjust="spacing" textLength="98.998" x="768" y="730.7622">Valida transici&#243;n:</text><text fill="#000000" font-family="sans-serif" font-size="13" lengthAdjust="spacing" textLength="145.9707" x="768" y="745.7109">Pendiente &#8594; Confirmado</text><g class="message" data-entity-1="part4" data-entity-2="part5" data-source-line="33" id="msg16"><polygon fill="#181818" points="924.1284,805.312,934.1284,809.312,924.1284,813.312,928.1284,809.312" style="stroke:#181818;stroke-width:1;"/><line style="stroke:#181818;stroke-width:1;" x1="757.2266" x2="930.1284" y1="809.312" y2="809.312"/><text fill="#000000" font-family="sans-serif" font-size="13" lengthAdjust="spacing" textLength="85.9727" x="764.2266" y="774.6597">UPDATE turno</text><text fill="#000000" font-family="sans-serif" font-size="13" lengthAdjust="spacing" textLength="154.9019" x="764.2266" y="789.6084">SET estado = 'Confirmado'</text><text fill="#000000" font-family="sans-serif" font-size="13" lengthAdjust="spacing" textLength="84.1636" x="764.2266" y="804.5571">WHERE id = ?</text></g><g class="message" data-entity-1="part4" data-entity-2="part2" data-source-line="34" id="msg17"><polygon fill="#181818" points="354.5674,834.2607,344.5674,838.2607,354.5674,842.2607,350.5674,838.2607" style="stroke:#181818;stroke-width:1;"/><line style="stroke:#181818;stroke-width:1;" x1="348.5674" x2="756.2266" y1="838.2607" y2="838.2607"/><text fill="#000000" font-family="sans-serif" font-size="13" lengthAdjust="spacing" textLength="71.5317" x="360.5674" y="833.5059">return Turno</text></g><g class="message" data-entity-1="part2" data-entity-2="part2" data-source-line="35" id="msg18"><line style="stroke:#181818;stroke-width:1;" x1="343.5674" x2="385.5674" y1="867.2095" y2="867.2095"/><line style="stroke:#181818;stroke-width:1;" x1="385.5674" x2="385.5674" y1="867.2095" y2="880.2095"/><line style="stroke:#181818;stroke-width:1;" x1="344.5674" x2="385.5674" y1="880.2095" y2="880.2095"/><polygon fill="#181818" points="354.5674,876.2095,344.5674,880.2095,354.5674,884.2095,350.5674,880.2095" style="stroke:#181818;stroke-width:1;"/><text fill="#000000" font-family="sans-serif" font-size="13" lengthAdjust="spacing" textLength="104.7554" x="350.5674" y="862.4546">refrescar_listado()</text></g><g class="message" data-entity-1="part2" data-entity-2="part1" data-source-line="36" id="msg19"><polygon fill="#181818" points="77.9688,905.1582,67.9688,909.1582,77.9688,913.1582,73.9688,909.1582" style="stroke:#181818;stroke-width:1;"/><line style="stroke:#181818;stroke-width:1;" x1="71.9688" x2="342.5674" y1="909.1582" y2="909.1582"/><text fill="#000000" font-family="sans-serif" font-size="13" lengthAdjust="spacing" textLength="111.1094" x="83.9688" y="904.4033">"Turno confirmado"</text></g><rect fill="#EEEEEE" height="3" style="stroke:#EEEEEE;stroke-width:1;" width="999.9253" x="0" y="937.6326"/><line style="stroke:#000000;stroke-width:1;" x1="0" x2="999.9253" y1="937.6326" y2="937.6326"/><line style="stroke:#000000;stroke-width:1;" x1="0" x2="999.9253" y1="940.6326" y2="940.6326"/><rect fill="#EEEEEE" height="22.9487" style="stroke:#000000;stroke-width:2;" width="112.9663" x="443.4795" y="927.1582"/><text fill="#000000" font-family="sans-serif" font-size="13" font-weight="700" lengthAdjust="spacing" textLength="95.3545" x="449.4795" y="943.3521">Cancelar Turno</text><g class="message" data-entity-1="part1" data-entity-2="part2" data-source-line="40" id="msg20"><polygon fill="#181818" points="331.5674,992.0044,341.5674,996.0044,331.5674,1000.0044,335.5674,996.0044" style="stroke:#181818;stroke-width:1;"/><line style="stroke:#181818;stroke-width:1;" x1="66.9688" x2="337.5674" y1="996.0044" y2="996.0044"/><text fill="#000000" font-family="sans-serif" font-size="13" lengthAdjust="spacing" textLength="96.8398" x="73.9688" y="976.3008">Selecciona turno</text><text fill="#000000" font-family="sans-serif" font-size="13" lengthAdjust="spacing" textLength="115.6162" x="73.9688" y="991.2495">y presiona Cancelar</text></g><g class="message" data-entity-1="part2" data-entity-2="part4" data-source-line="41" id="msg21"><polygon fill="#181818" points="745.2266,1031.4275,755.2266,1035.4275,745.2266,1039.4275,749.2266,1035.4275" style="stroke:#181818;stroke-width:1;"/><line style="stroke:#181818;stroke-width:1;" x1="343.5674" x2="751.2266" y1="1035.4275" y2="1035.4275"/><text fill="#000000" font-family="sans-serif" font-size="13" lengthAdjust="spacing" textLength="104.7744" x="350.5674" y="1030.6726">cancelar_turno(id)</text></g><path d="M762,1009.0044 L762,1048.0044 L989,1048.0044 L989,1019.0044 L979,1009.0044 L762,1009.0044" fill="#FEFFDD" style="stroke:#181818;stroke-width:0.5;"/><path d="M979,1009.0044 L979,1019.0044 L989,1019.0044 L979,1009.0044" fill="#FEFFDD" style="stroke:#181818;stroke-width:0.5;"/><text fill="#000000" font-family="sans-serif" font-size="13" lengthAdjust="spacing" textLength="98.998" x="768" y="1026.1982">Valida transici&#243;n:</text><text fill="#000000" font-family="sans-serif" font-size="13" lengthAdjust="spacing" textLength="206.6987" x="768" y="1041.147">Pendiente/Cancelado &#8594; Cancelado</text><g class="message" data-entity-1="part4" data-entity-2="part5" data-source-line="43" id="msg23"><polygon fill="#181818" points="924.1284,1100.748,934.1284,1104.748,924.1284,1108.748,928.1284,1104.748" style="stroke:#181818;stroke-width:1;"/><line style="stroke:#181818;stroke-width:1;" x1="757.2266" x2="930.1284" y1="1104.748" y2="1104.748"/><text fill="#000000" font-family="sans-serif" font-size="13" lengthAdjust="spacing" textLength="85.9727" x="764.2266" y="1070.0957">UPDATE turno</text><text fill="#000000" font-family="sans-serif" font-size="13" lengthAdjust="spacing" textLength="149.8618" x="764.2266" y="1085.0444">SET estado = 'Cancelado'</text><text fill="#000000" font-family="sans-serif" font-size="13" lengthAdjust="spacing" textLength="84.1636" x="764.2266" y="1099.9932">WHERE id = ?</text></g><g class="message" data-entity-1="part4" data-entity-2="part2" data-source-line="44" id="msg24"><polygon fill="#181818" points="354.5674,1129.6968,344.5674,1133.6968,354.5674,1137.6968,350.5674,1133.6968" style="stroke:#181818;stroke-width:1;"/><line style="stroke:#181818;stroke-width:1;" x1="348.5674" x2="756.2266" y1="1133.6968" y2="1133.6968"/><text fill="#000000" font-family="sans-serif" font-size="13" lengthAdjust="spacing" textLength="71.5317" x="360.5674" y="1128.9419">return Turno</text></g><g class="message" data-entity-1="part2" data-entity-2="part2" data-source-line="45" id="msg25"><line style="stroke:#181818;stroke-width:1;" x1="343.5674" x2="385.5674" y1="1162.6455" y2="1162.6455"/><line style="stroke:#181818;stroke-width:1;" x1="385.5674" x2="385.5674" y1="1162.6455" y2="1175.6455"/><line style="stroke:#181818;stroke-width:1;" x1="344.5674" x2="385.5674" y1="1175.6455" y2="1175.6455"/><polygon fill="#181818" points="354.5674,1171.6455,344.5674,1175.6455,354.5674,1179.6455,350.5674,1175.6455" style="stroke:#181818;stroke-width:1;"/><text fill="#000000" font-family="sans-serif" font-size="13" lengthAdjust="spacing" textLength="104.7554" x="350.5674" y="1157.8906">refrescar_listado()</text></g><g class="message" data-entity-1="part2" data-entity-2="part1" data-source-line="46" id="msg26"><polygon fill="#181818" points="77.9688,1200.5942,67.9688,1204.5942,77.9688,1208.5942,73.9688,1204.5942" style="stroke:#181818;stroke-width:1;"/><line style="stroke:#181818;stroke-width:1;" x1="71.9688" x2="342.5674" y1="1204.5942" y2="1204.5942"/><text fill="#000000" font-family="sans-serif" font-size="13" lengthAdjust="spacing" textLength="106.0693" x="83.9688" y="1199.8394">"Turno cancelado"</text></g><?plantuml-src lLFBQXin5DthAoxJXMrm9_IrCRWbE1CQA8qRk-rc8CYIx8Z8LnD93kaF5BhjNtITJ_2Vz4jwH_EmfxWXxQ8Onenqphtdddl6NsiikEDhM71nlN9sWt9YZNNmv3GhVuoBG6yNIgX2Q8lQ1mxSWoiF65635hhW622PAhf3pUSRXzOd9QgWeoxeH7DZL_ROwnLo5w4HASsg2vnOz1j3lNKDM3390rzmho2PVNYdWuhd_iOmDXv3NH5YIHYF6OiIuUdhg096C7NAqmGSaWusOV6USAI1O0SKzWikjCAW_12ij1XiYV03LZA8M7KQmQbrwutX97a43QLcREzBoZ37fH9NV0XNrj5pROE-jJkbbOA9NHT6aSzVe6WqrtAQZlL8JWNI1sICzT2NMeG1susp80IlU9SXpf4ZjC8kjToVfdmjhm_e6p2qGO7JgwimWZFYEkJhiWRSSgCb7-NuB8LfNHWeCiJAyNaASsMsFvQMDkBKYhBZkAIB5ocSxqm1TKStAiUNAPdl2mhPGfTbPOwlKiWeLTB2LA6CvHdDHTFHtccyi_Upx69EV_DpY2D2cgOvzbKaZNijgpUeULtdudePuoR0zjkT3fO1DFwro2KjGP27HiUg_S4Ug5bzKkMkibjIg9IXe6REqSTJcIJqzXuFClSykjaefuaEHnJoJQ5SORsEpF981P4ocYW6dZwGfNRh1oC_KqO94GDKkTFwaUDUkDfItUo8vhXEZvRT97oASm4j5MkH58Is0_py-hsjB6rdRH-d9yVphDAKuooRGxKm64DlH-db-FbjTf61bdJnve45Fc9bVrYOQBibbQiSXJ9_PMhNofh_cvFrwJyPULJN97kYfStRunrj6F_5qAPPmdu1?></g></svg>