<svg xmlns="http://www.w3.org/2000/svg" xmlns:xlink="http://www.w3.org/1999/xlink" contentStyleType="text/css" data-diagram-type="SEQUENCE" height="545px" preserveAspectRatio="none" style="width:761px;height:545px;background:#FEFEFE;" version="1.1" viewBox="0 0 761 545" width="761px" zoomAndPan="magnify"><?plantuml 1.2026.3?><defs/><g><rect fill="#FEFEFE" height="545" style="stroke:none;stroke-width:1;" width="761" x="0" y="0"/><g class="participant-lifeline" data-entity-uid="part1" data-qualified-name="recep" data-source-line="2" id="part1-lifeline"><g><title>Recepcionista</title><rect fill="#000000" fill-opacity="0.00000" height="382.2822" width="8" x="47.9688" y="81.0986"/><line style="stroke:#181818;stroke-width:0.5;stroke-dasharray:5,5;" x1="51" x2="51" y1="81.0986" y2="463.3809"/></g></g><g class="participant-lifeline" data-entity-uid="part2" data-qualified-name="pest" data-source-line="3" id="part2-lifeline"><g><title>PestaniaPacientes</title><rect fill="#000000" fill-opacity="0.00000" height="382.2822" width="8" x="220.8213" y="81.0986"/><line style="stroke:#181818;stroke-width:0.5;stroke-dasharray:5,5;" x1="223.8389" x2="223.8389" y1="81.0986" y2="463.3809"/></g></g><g class="participant-lifeline" data-entity-uid="part3" data-qualified-name="dlg" data-source-line="4" id="part3-lifeline"><g><title>DialogoPaciente</title><rect fill="#000000" fill-opacity="0.00000" height="382.2822" width="8" x="438.6406" y="81.0986"/><line style="stroke:#181818;stroke-width:0.5;stroke-dasharray:5,5;" x1="441.6616" x2="441.6616" y1="81.0986" y2="463.3809"/></g></g><g class="participant-lifeline" data-entity-uid="part4" data-qualified-name="db" data-source-line="5" id="part4-lifeline"><g><title>Consultorio</title><rect fill="#000000" fill-opacity="0.00000" height="382.2822" width="8" x="549.0264" y="81.0986"/><line style="stroke:#181818;stroke-width:0.5;stroke-dasharray:5,5;" x1="552.6196" x2="552.6196" y1="81.0986" y2="463.3809"/></g></g><g class="participant-lifeline" data-entity-uid="part5" data-qualified-name="sql" data-source-line="6" id="part5-lifeline"><g><title>SQLite</title><rect fill="#000000" fill-opacity="0.00000" height="382.2822" width="8" x="721.8599" y="81.0986"/><line style="stroke:#181818;stroke-width:0.5;stroke-dasharray:5,5;" x1="725.46" x2="725.46" y1="81.0986" y2="463.3809"/></g></g><g class="participant participant-head" data-entity-uid="part1" data-qualified-name="recep" data-source-line="2" id="part1-head"><text fill="#000000" font-family="sans-serif" font-size="14" lengthAdjust="spacing" textLength="87.9375" x="5" y="78.1318">Recepcionista</text><ellipse cx="51.9688" cy="13.5" fill="#E2E2F0" rx="8" ry="8" style="stroke:#181818;stroke-width:0.5;"/><path d="M51.9688,21.5 L51.9688,48.5 M38.9688,29.5 L64.9688,29.5 M51.9688,48.5 L38.9688,63.5 M51.9688,48.5 L64.9688,63.5" fill="none" style="stroke:#181818;stroke-width:0.5;"/></g><g class="participant participant-tail" data-entity-uid="part1" data-qualified-name="recep" data-source-line="2" id="part1-tail"><text fill="#000000" font-family="sans-serif" font-size="14" lengthAdjust="spacing" textLength="87.9375" x="5" y="475.5127">Recepcionista</text><ellipse cx="51.9688" cy="486.9795" fill="#E2E2F0" rx="8" ry="8" style="stroke:#181818;stroke-width:0.5;"/><path d="M51.9688,494.9795 L51.9688,521.9795 M38.9688,502.9795 L64.9688,502.9795 M51.9688,521.9795 L38.9688,536.9795 M51.9688,521.9795 L64.9688,536.9795" fill="none" style="stroke:#181818;stroke-width:0.5;"/></g><g class="participant participant-head" data-entity-uid="part2" data-qualified-name="pest" data-source-line="3" id="part2-head"><rect fill="#E2E2F0" height="30.0986" rx="2.5" ry="2.5" style="stroke:#181818;stroke-width:0.5;" width="129.9648" x="159.8389" y="50"/><text fill="#000000" font-family="sans-serif" font-size="14" lengthAdjust="spacing" textLength="115.9648" x="166.8389" y="70.1318">PestaniaPacientes</text></g><g class="participant participant-tail" data-entity-uid="part2" data-qualified-name="pest" data-source-line="3" id="part2-tail"><rect fill="#E2E2F0" height="30.0986" rx="2.5" ry="2.5" style="stroke:#181818;stroke-width:0.5;" width="129.9648" x="159.8389" y="462.3809"/><text fill="#000000" font-family="sans-serif" font-size="14" lengthAdjust="spacing" textLength="115.9648" x="166.8389" y="482.5127">PestaniaPacientes</text></g><g class="participant participant-head" data-entity-uid="part3" data-qualified-name="dlg" data-source-line="4" id="part3-head"><rect fill="#E2E2F0" height="30.0986" rx="2.5" ry="2.5" style="stroke:#181818;stroke-width:0.5;" width="115.958" x="384.6616" y="50"/><text fill="#000000" font-family="sans-serif" font-size="14" lengthAdjust="spacing" textLength="101.958" x="391.6616" y="70.1318">DialogoPaciente</text></g><g class="participant participant-tail" data-entity-uid="part3" data-qualified-name="dlg" data-source-line="4" id="part3-tail"><rect fill="#E2E2F0" height="30.0986" rx="2.5" ry="2.5" style="stroke:#181818;stroke-width:0.5;" width="115.958" x="384.6616" y="462.3809"/><text fill="#000000" font-family="sans-serif" font-size="14" lengthAdjust="spacing" textLength="101.958" x="391.6616" y="482.5127">DialogoPaciente</text></g><g class="participant participant-head" data-entity-uid="part4" data-qualified-name="db" data-source-line="5" id="part4-head"><rect fill="#E2E2F0" height="30.0986" rx="2.5" ry="2.5" style="stroke:#181818;stroke-width:0.5;" width="84.8135" x="510.6196" y="50"/><text fill="#000000" font-family="sans-serif" font-size="14" lengthAdjust="spacing" textLength="70.8135" x="517.6196" y="70.1318">Consultorio</text></g><g class="participant participant-tail" data-entity-uid="part4" data-qualified-name="db" data-source-line="5" id="part4-tail"><rect fill="#E2E2F0" height="30.0986" rx="2.5" ry="2.5" style="stroke:#181818;stroke-width:0.5;" width="84.8135" x="510.6196" y="462.3809"/><text fill="#000000" font-family="sans-serif" font-size="14" lengthAdjust="spacing" textLength="70.8135" x="517.6196" y="482.5127">Consultorio</text></g><g class="participant participant-head" data-entity-uid="part5" data-qualified-name="sql" data-source-line="6" id="part5-head"><text fill="#000000" font-family="sans-serif" font-size="14" lengthAdjust="spacing" textLength="42.7998" x="701.46" y="78.1318">SQLite</text><path d="M707.8599,29 C707.8599,19 725.8599,19 725.8599,19 C725.8599,19 743.8599,19 743.8599,29 L743.8599,55 C743.8599,65 725.8599,65 725.8599,65 C725.8599,65 707.8599,65 707.8599,55 L707.8599,29" fill="#E2E2F0" style="stroke:#181818;stroke-width:0.5;"/><path d="M707.8599,29 C707.8599,39 725.8599,39 725.8599,39 C725.8599,39 743.8599,39 743.8599,29" fill="none" style="stroke:#181818;stroke-width:0.5;"/></g><g class="participant participant-tail" data-entity-uid="part5" data-qualified-name="sql" data-source-line="6" id="part5-tail"><text fill="#000000" font-family="sans-serif" font-size="14" lengthAdjust="spacing" textLength="42.7998" x="701.46" y="475.5127">SQLite</text><path d="M707.8599,488.4795 C707.8599,478.4795 725.8599,478.4795 725.8599,478.4795 C725.8599,478.4795 743.8599,478.4795 743.8599,488.4795 L743.8599,514.4795 C743.8599,524.4795 725.8599,524.4795 725.8599,524.4795 C725.8599,524.4795 707.8599,524.4795 707.8599,514.4795 L707.8599,488.4795" fill="#E2E2F0" style="stroke:#181818;stroke-width:0.5;"/><path d="M707.8599,488.4795 C707.8599,498.4795 725.8599,498.4795 725.8599,498.4795 C725.8599,498.4795 743.8599,498.4795 743.8599,488.4795" fill="none" style="stroke:#181818;stroke-width:0.5;"/></g><g class="message" data-entity-1="part1" data-entity-2="part2" data-source-line="8" id="msg1"><polygon fill="#181818" points="212.8213,122.9961,222.8213,126.9961,212.8213,130.9961,216.8213,126.9961" style="stroke:#181818;stroke-width:1;"/><line style="stroke:#181818;stroke-width:1;" x1="51.9688" x2="218.8213" y1="126.9961" y2="126.9961"/><text fill="#000000" font-family="sans-serif" font-size="13" lengthAdjust="spacing" textLength="116.3589" x="58.9688" y="107.2925">Selecciona paciente</text><text fill="#000000" font-family="sans-serif" font-size="13" lengthAdjust="spacing" textLength="116.3271" x="58.9688" y="122.2412">y presiona Modificar</text></g><g class="message" data-entity-1="part2" data-entity-2="part3" data-source-line="9" id="msg2"><polygon fill="#181818" points="430.6406,151.9448,440.6406,155.9448,430.6406,159.9448,434.6406,155.9448" style="stroke:#181818;stroke-width:1;"/><line style="stroke:#181818;stroke-width:1;" x1="224.8213" x2="436.6406" y1="155.9448" y2="155.9448"/><text fill="#000000" font-family="sans-serif" font-size="13" lengthAdjust="spacing" textLength="193.8193" x="231.8213" y="151.1899">mostrar(modo="modificar", datos)</text></g><g class="message" data-entity-1="part3" data-entity-2="part1" data-source-line="10" id="msg3"><polygon fill="#181818" points="62.9688,195.8423,52.9688,199.8423,62.9688,203.8423,58.9688,199.8423" style="stroke:#181818;stroke-width:1;"/><line style="stroke:#181818;stroke-width:1;" x1="56.9688" x2="441.6406" y1="199.8423" y2="199.8423"/><text fill="#000000" font-family="sans-serif" font-size="13" lengthAdjust="spacing" textLength="108.3672" x="68.9688" y="180.1387">Muestra formulario</text><text fill="#000000" font-family="sans-serif" font-size="13" lengthAdjust="spacing" textLength="108.4053" x="68.9688" y="195.0874">con datos actuales</text></g><g class="message" data-entity-1="part1" data-entity-2="part3" data-source-line="12" id="msg4"><polygon fill="#181818" points="430.6406,239.7397,440.6406,243.7397,430.6406,247.7397,434.6406,243.7397" style="stroke:#181818;stroke-width:1;"/><line style="stroke:#181818;stroke-width:1;" x1="51.9688" x2="436.6406" y1="243.7397" y2="243.7397"/><text fill="#000000" font-family="sans-serif" font-size="13" lengthAdjust="spacing" textLength="97.5381" x="58.9688" y="224.0361">Modifica campos</text><text fill="#000000" font-family="sans-serif" font-size="13" lengthAdjust="spacing" textLength="111.2808" x="58.9688" y="238.9849">y presiona Guardar</text></g><g class="message" data-entity-1="part3" data-entity-2="part2" data-source-line="13" id="msg5"><polygon fill="#181818" points="235.8213,268.6885,225.8213,272.6885,235.8213,276.6885,231.8213,272.6885" style="stroke:#181818;stroke-width:1;"/><line style="stroke:#181818;stroke-width:1;" x1="229.8213" x2="441.6406" y1="272.6885" y2="272.6885"/><text fill="#000000" font-family="sans-serif" font-size="13" lengthAdjust="spacing" textLength="142.3525" x="241.8213" y="267.9336">return datos modificados</text></g><g class="message" data-entity-1="part2" data-entity-2="part4" data-source-line="14" id="msg6"><polygon fill="#181818" points="541.0264,297.6372,551.0264,301.6372,541.0264,305.6372,545.0264,301.6372" style="stroke:#181818;stroke-width:1;"/><line style="stroke:#181818;stroke-width:1;" x1="224.8213" x2="547.0264" y1="301.6372" y2="301.6372"/><text fill="#000000" font-family="sans-serif" font-size="13" lengthAdjust="spacing" textLength="166.918" x="231.8213" y="296.8823">modificar_paciente(id, datos)</text></g><g class="message" data-entity-1="part4" data-entity-2="part5" data-source-line="15" id="msg7"><polygon fill="#181818" points="713.8599,341.5347,723.8599,345.5347,713.8599,349.5347,717.8599,345.5347" style="stroke:#181818;stroke-width:1;"/><line style="stroke:#181818;stroke-width:1;" x1="553.0264" x2="719.8599" y1="345.5347" y2="345.5347"/><text fill="#000000" font-family="sans-serif" font-size="13" lengthAdjust="spacing" textLength="148.8335" x="560.0264" y="325.8311">UPDATE paciente SET ...</text><text fill="#000000" font-family="sans-serif" font-size="13" lengthAdjust="spacing" textLength="84.1636" x="560.0264" y="340.7798">WHERE id = ?</text></g><g class="message" data-entity-1="part4" data-entity-2="part2" data-source-line="16" id="msg8"><polygon fill="#181818" points="235.8213,370.4834,225.8213,374.4834,235.8213,378.4834,231.8213,374.4834" style="stroke:#181818;stroke-width:1;"/><line style="stroke:#181818;stroke-width:1;" x1="229.8213" x2="552.0264" y1="374.4834" y2="374.4834"/><text fill="#000000" font-family="sans-serif" font-size="13" lengthAdjust="spacing" textLength="64.3018" x="241.8213" y="369.7285">return True</text></g><g class="message" data-entity-1="part2" data-entity-2="part2" data-source-line="17" id="msg9"><line style="stroke:#181818;stroke-width:1;" x1="224.8213" x2="266.8213" y1="403.4321" y2="403.4321"/><line style="stroke:#181818;stroke-width:1;" x1="266.8213" x2="266.8213" y1="403.4321" y2="416.4321"/><line style="stroke:#181818;stroke-width:1;" x1="225.8213" x2="266.8213" y1="416.4321" y2="416.4321"/><polygon fill="#181818" points="235.8213,412.4321,225.8213,416.4321,235.8213,420.4321,231.8213,416.4321" style="stroke:#181818;stroke-width:1;"/><text fill="#000000" font-family="sans-serif" font-size="13" lengthAdjust="spacing" textLength="104.7554" x="231.8213" y="398.6772">refrescar_listado()</text></g><g class="message" data-entity-1="part2" data-entity-2="part1" data-source-line="18" id="msg10"><polygon fill="#181818" points="62.9688,441.3809,52.9688,445.3809,62.9688,449.3809,58.9688,445.3809" style="stroke:#181818;stroke-width:1;"/><line style="stroke:#181818;stroke-width:1;" x1="56.9688" x2="223.8213" y1="445.3809" y2="445.3809"/><text fill="#000000" font-family="sans-serif" font-size="13" lengthAdjust="spacing" textLength="148.8525" x="68.9688" y="440.626">Muestra mensaje de &#233;xito</text></g><?plantuml-src NP9DJiCm44RtFiKeR5e9Ue1A1I4QO46bqXQngOGcjbkPEfvWEn8SYNDmCSRvAq5PPVo-VC-ZX9Dn5NeieK1vEdggdReZInukxlFq29IHtpPQwaeQSYP410pWqq1mD1ffAdGHihNcCsTmZT9e5tN84bZnTCmj3LewKeyrbBB7CNH7BjIMgmsrG24KHYmmQCYspq-c2uOFAqGZ0rVNJHdCOQkjbiaMeUfQzkuBAgz3CroHCWSZqOicm47kvrn98Nhqav8KBRAofx9Bu6uAKv4mfjk-EQngdG9m85_M5jbrxoIvbWRUN8rMXpz-RKrV3nBBYi98xQ56hrYiQ-ekv7MiVV_TtajHEFiNZNud_DRVUcBKsRr88E-BoPVrydQN3yk1RRw3sMosTw-F-IO7es01DrrYhB3pjHvQXwC3wwTUctuFHPFfWFnVLQbTm7SDIiFFzwU997u1?></g></svg>