<svg xmlns="http://www.w3.org/2000/svg" xmlns:xlink="http://www.w3.org/1999/xlink" contentStyleType="text/css" data-diagram-type="SEQUENCE" height="955px" preserveAspectRatio="none" style="width:771px;height:955px;background:#FEFEFE;" version="1.1" viewBox="0 0 771 955" width="771px" zoomAndPan="magnify"><?plantuml 1.2026.3?><defs/><g><rect fill="#FEFEFE" height="955" style="stroke:none;stroke-width:1;" width="771" x="0" y="0"/><rect fill="none" height="104.4438" style="stroke:#000000;stroke-width:1.5;" width="323.5015" x="10" y="346.5347"/><g class="participant-lifeline" data-entity-uid="part1" data-qualified-name="user" data-source-line="2" id="part1-lifeline"><g><title>Usuario</title><rect fill="#000000" fill-opacity="0.00000" height="792.1108" width="8" x="43.1206" y="81.0986"/><line style="stroke:#181818;stroke-width:0.5;stroke-dasharray:5,5;" x1="47" x2="47" y1="81.0986" y2="873.2095"/></g></g><g class="participant-lifeline" data-entity-uid="part2" data-qualified-name="pest" data-source-line="3" id="part2-lifeline"><g><title>PestaniaHistoriaClinica</title><rect fill="#000000" fill-opacity="0.00000" height="792.1108" width="8" x="240.5259" y="81.0986"/><line style="stroke:#181818;stroke-width:0.5;stroke-dasharray:5,5;" x1="243.5503" x2="243.5503" y1="81.0986" y2="873.2095"/></g></g><g class="participant-lifeline" data-entity-uid="part3" data-qualified-name="dlg" data-source-line="4" id="part3-lifeline"><g><title>DialogoHistoria</title><rect fill="#000000" fill-opacity="0.00000" height="792.1108" width="8" x="399.6738" y="81.0986"/><line style="stroke:#181818;stroke-width:0.5;stroke-dasharray:5,5;" x1="403.2085" x2="403.2085" y1="81.0986" y2="873.2095"/></g></g><g class="participant-lifeline" data-entity-uid="part4" data-qualified-name="db" data-source-line="5" id="part4-lifeline"><g><title>Consultorio</title><rect fill="#000000" fill-opacity="0.00000" height="792.1108" width="8" x="506.5459" y="81.0986"/><line style="stroke:#181818;stroke-width:0.5;stroke-dasharray:5,5;" x1="510.1392" x2="510.1392" y1="81.0986" y2="873.2095"/></g></g><g class="participant-lifeline" data-entity-uid="part5" data-qualified-name="sql" data-source-line="6" id="part5-lifeline"><g><title>SQLite</title><rect fill="#000000" fill-opacity="0.00000" height="792.1108" width="8" x="732.1538" y="81.0986"/><line style="stroke:#181818;stroke-width:0.5;stroke-dasharray:5,5;" x1="735.7539" x2="735.7539" y1="81.0986" y2="873.2095"/></g></g><g class="participant participant-head" data-entity-uid="part1" data-qualified-name="user" data-source-line="2" id="part1-head"><text fill="#000000" font-family="sans-serif" font-size="14" lengthAdjust="spacing" textLength="48.2412" x="20" y="78.1318">Usuario</text><ellipse cx="47.1206" cy="13.5" fill="#E2E2F0" rx="8" ry="8" style="stroke:#181818;stroke-width:0.5;"/><path d="M47.1206,21.5 L47.1206,48.5 M34.1206,29.5 L60.1206,29.5 M47.1206,48.5 L34.1206,63.5 M47.1206,48.5 L60.1206,63.5" fill="none" style="stroke:#181818;stroke-width:0.5;"/></g><g class="participant participant-tail" data-entity-uid="part1" data-qualified-name="user" data-source-line="2" id="part1-tail"><text fill="#000000" font-family="sans-serif" font-size="14" lengthAdjust="spacing" textLength="48.2412" x="20" y="885.3413">Usuario</text><ellipse cx="47.1206" cy="896.8081" fill="#E2E2F0" rx="8" ry="8" style="stroke:#181818;stroke-width:0.5;"/><path d="M47.1206,904.8081 L47.1206,931.8081 M34.1206,912.8081 L60.1206,912.8081 M47.1206,931.8081 L34.1206,946.8081 M47.1206,931.8081 L60.1206,946.8081" fill="none" style="stroke:#181818;stroke-width:0.5;"/></g><g class="participant participant-head" data-entity-uid="part2" data-qualified-name="pest" data-source-line="3" id="part2-head"><rect fill="#E2E2F0" height="30.0986" rx="2.5" ry="2.5" style="stroke:#181818;stroke-width:0.5;" width="157.9512" x="165.5503" y="50"/><text fill="#000000" font-family="sans-serif" font-size="14" lengthAdjust="spacing" textLength="143.9512" x="172.5503" y="70.1318">PestaniaHistoriaClinica</text></g><g class="participant participant-tail" data-entity-uid="part2" data-qualified-name="pest" data-source-line="3" id="part2-tail"><rect fill="#E2E2F0" height="30.0986" rx="2.5" ry="2.5" style="stroke:#181818;stroke-width:0.5;" width="157.9512" x="165.5503" y="872.2095"/><text fill="#000000" font-family="sans-serif" font-size="14" lengthAdjust="spacing" textLength="143.9512" x="172.5503" y="892.3413">PestaniaHistoriaClinica</text></g><g class="participant participant-head" data-entity-uid="part3" data-qualified-name="dlg" data-source-line="4" id="part3-head"><rect fill="#E2E2F0" height="30.0986" rx="2.5" ry="2.5" style="stroke:#181818;stroke-width:0.5;" width="108.9307" x="349.2085" y="50"/><text fill="#000000" font-family="sans-serif" font-size="14" lengthAdjust="spacing" textLength="94.9307" x="356.2085" y="70.1318">DialogoHistoria</text></g><g class="participant participant-tail" data-entity-uid="part3" data-qualified-name="dlg" data-source-line="4" id="part3-tail"><rect fill="#E2E2F0" height="30.0986" rx="2.5" ry="2.5" style="stroke:#181818;stroke-width:0.5;" width="108.9307" x="349.2085" y="872.2095"/><text fill="#000000" font-family="sans-serif" font-size="14" lengthAdjust="spacing" textLength="94.9307" x="356.2085" y="892.3413">DialogoHistoria</text></g><g class="participant participant-head" data-entity-uid="part4" data-qualified-name="db" data-source-line="5" id="part4-head"><rect fill="#E2E2F0" height="30.0986" rx="2.5" ry="2.5" style="stroke:#181818;stroke-width:0.5;" width="84.8135" x="468.1392" y="50"/><text fill="#000000" font-family="sans-serif" font-size="14" lengthAdjust="spacing" textLength="70.8135" x="475.1392" y="70.1318">Consultorio</text></g><g class="participant participant-tail" data-entity-uid="part4" data-qualified-name="db" data-source-line="5" id="part4-tail"><rect fill="#E2E2F0" height="30.0986" rx="2.5" ry="2.5" style="stroke:#181818;stroke-width:0.5;" width="84.8135" x="468.1392" y="872.2095"/><text fill="#000000" font-family="sans-serif" font-size="14" lengthAdjust="spacing" textLength="70.8135" x="475.1392" y="892.3413">Consultorio</text></g><g class="participant participant-head" data-entity-uid="part5" data-qualified-name="sql" data-source-line="6" id="part5-head"><text fill="#000000" font-family="sans-serif" font-size="14" lengthAdjust="spacing" textLength="42.7998" x="711.7539" y="78.1318">SQLite</text><path d="M718.1538,29 C718.1538,19 736.1538,19 736.1538,19 C736.1538,19 754.1538,19 754.1538,29 L754.1538,55 C754.1538,65 736.1538,65 736.1538,65 C736.1538,65 718.1538,65 718.1538,55 L718.1538,29" fill="#E2E2F0" style="stroke:#181818;stroke-width:0.5;"/><path d="M718.1538,29 C718.1538,39 736.1538,39 736.1538,39 C736.1538,39 754.1538,39 754.1538,29" fill="none" style="stroke:#181818;stroke-width:0.5;"/></g><g class="participant participant-tail" data-entity-uid="part5" data-qualified-name="sql" data-source-line="6" id="part5-tail"><text fill="#000000" font-family="sans-serif" font-size="14" lengthAdjust="spacing" textLength="42.7998" x="711.7539" y="885.3413">SQLite</text><path d="M718.1538,898.3081 C718.1538,888.3081 736.1538,888.3081 736.1538,888.3081 C736.1538,888.3081 754.1538,888.3081 754.1538,898.3081 L754.1538,924.3081 C754.1538,934.3081 736.1538,934.3081 736.1538,934.3081 C736.1538,934.3081 718.1538,934.3081 718.1538,924.3081 L718.1538,898.3081" fill="#E2E2F0" style="stroke:#181818;stroke-width:0.5;"/><path d="M718.1538,898.3081 C718.1538,908.3081 736.1538,908.3081 736.1538,908.3081 C736.1538,908.3081 754.1538,908.3081 754.1538,898.3081" fill="none" style="stroke:#181818;stroke-width:0.5;"/></g><rect fill="#EEEEEE" height="3" style="stroke:#EEEEEE;stroke-width:1;" width="765.5537" x="0" y="111.573"/><line style="stroke:#000000;stroke-width:1;" x1="0" x2="765.5537" y1="111.573" y2="111.573"/><line style="stroke:#000000;stroke-width:1;" x1="0" x2="765.5537" y1="114.573" y2="114.573"/><rect fill="#EEEEEE" height="22.9487" style="stroke:#000000;stroke-width:2;" width="176.5317" x="294.511" y="101.0986"/><text fill="#000000" font-family="sans-serif" font-size="13" font-weight="700" lengthAdjust="spacing" textLength="158.9199" x="300.511" y="117.2925">Consultar Historia Cl&#237;nica</text><g class="message" data-entity-1="part1" data-entity-2="part2" data-source-line="10" id="msg1"><polygon fill="#181818" points="232.5259,165.9448,242.5259,169.9448,232.5259,173.9448,236.5259,169.9448" style="stroke:#181818;stroke-width:1;"/><line style="stroke:#181818;stroke-width:1;" x1="47.1206" x2="238.5259" y1="169.9448" y2="169.9448"/><text fill="#000000" font-family="sans-serif" font-size="13" lengthAdjust="spacing" textLength="116.3589" x="54.1206" y="150.2412">Selecciona paciente</text><text fill="#000000" font-family="sans-serif" font-size="13" lengthAdjust="spacing" textLength="140.7275" x="54.1206" y="165.1899">y presiona "Ver Historia"</text></g><g class="message" data-entity-1="part2" data-entity-2="part4" data-source-line="11" id="msg2"><polygon fill="#181818" points="498.5459,194.8936,508.5459,198.8936,498.5459,202.8936,502.5459,198.8936" style="stroke:#181818;stroke-width:1;"/><line style="stroke:#181818;stroke-width:1;" x1="244.5259" x2="504.5459" y1="198.8936" y2="198.8936"/><text fill="#000000" font-family="sans-serif" font-size="13" lengthAdjust="spacing" textLength="195.0952" x="251.5259" y="194.1387">listar_historia_clinica(paciente_id)</text></g><g class="message" data-entity-1="part4" data-entity-2="part5" data-source-line="12" id="msg3"><polygon fill="#181818" points="724.1538,298.5859,734.1538,302.5859,724.1538,306.5859,728.1538,302.5859" style="stroke:#181818;stroke-width:1;"/><line style="stroke:#181818;stroke-width:1;" x1="510.5459" x2="730.1538" y1="302.5859" y2="302.5859"/><text fill="#000000" font-family="sans-serif" font-size="13" lengthAdjust="spacing" textLength="201.6079" x="517.5459" y="223.0874">SELECT hc.*, o.nombre, o.apellido</text><text fill="#000000" font-family="sans-serif" font-size="13" lengthAdjust="spacing" textLength="144.4854" x="517.5459" y="238.0361">FROM historia_clinica hc</text><text fill="#000000" font-family="sans-serif" font-size="13" lengthAdjust="spacing" textLength="108.4053" x="517.5459" y="252.9849">JOIN odontologo o</text><text fill="#000000" font-family="sans-serif" font-size="13" lengthAdjust="spacing" textLength="157.917" x="517.5459" y="267.9336">ON hc.odontologo_id = o.id</text><text fill="#000000" font-family="sans-serif" font-size="13" lengthAdjust="spacing" textLength="157.8853" x="517.5459" y="282.8823">WHERE hc.paciente_id = ?</text><text fill="#000000" font-family="sans-serif" font-size="13" lengthAdjust="spacing" textLength="160.3862" x="517.5459" y="297.8311">ORDER BY hc.fecha DESC</text></g><g class="message" data-entity-1="part4" data-entity-2="part2" data-source-line="13" id="msg4"><polygon fill="#181818" points="255.5259,327.5347,245.5259,331.5347,255.5259,335.5347,251.5259,331.5347" style="stroke:#181818;stroke-width:1;"/><line style="stroke:#181818;stroke-width:1;" x1="249.5259" x2="509.5459" y1="331.5347" y2="331.5347"/><text fill="#000000" font-family="sans-serif" font-size="13" lengthAdjust="spacing" textLength="143.7617" x="261.5259" y="326.7798">return list[HistoriaClinica]</text></g><path d="M10,346.5347 L70.1709,346.5347 L70.1709,353.4834 L60.1709,363.4834 L10,363.4834 L10,346.5347" fill="#EEEEEE" style="stroke:#000000;stroke-width:1.5;"/><rect fill="none" height="104.4438" style="stroke:#000000;stroke-width:1.5;" width="323.5015" x="10" y="346.5347"/><text fill="#000000" font-family="sans-serif" font-size="13" font-weight="700" lengthAdjust="spacing" textLength="15.1709" x="25" y="359.7285">alt</text><text fill="#000000" font-family="sans-serif" font-size="11" font-weight="700" lengthAdjust="spacing" textLength="74.5508" x="85.1709" y="358.8525">[Con historial]</text><g class="message" data-entity-1="part2" data-entity-2="part1" data-source-line="16" id="msg5"><polygon fill="#181818" points="58.1206,380.4321,48.1206,384.4321,58.1206,388.4321,54.1206,384.4321" style="stroke:#181818;stroke-width:1;"/><line style="stroke:#181818;stroke-width:1;" x1="52.1206" x2="243.5259" y1="384.4321" y2="384.4321"/><text fill="#000000" font-family="sans-serif" font-size="13" lengthAdjust="spacing" textLength="173.4053" x="64.1206" y="379.6772">Muestra Treeview cronol&#243;gico</text></g><line style="stroke:#000000;stroke-width:1;stroke-dasharray:2,2;" x1="10" x2="333.5015" y1="393.4321" y2="393.4321"/><text fill="#000000" font-family="sans-serif" font-size="11" font-weight="700" lengthAdjust="spacing" textLength="70.2808" x="15" y="403.75">[Sin historial]</text><g class="message" data-entity-1="part2" data-entity-2="part1" data-source-line="18" id="msg6"><polygon fill="#181818" points="58.1206,438.9785,48.1206,442.9785,58.1206,446.9785,54.1206,442.9785" style="stroke:#181818;stroke-width:1;"/><line style="stroke:#181818;stroke-width:1;" x1="52.1206" x2="243.5259" y1="442.9785" y2="442.9785"/><text fill="#000000" font-family="sans-serif" font-size="13" lengthAdjust="spacing" textLength="118.8091" x="64.1206" y="423.2749">"El paciente no tiene</text><text fill="#000000" font-family="sans-serif" font-size="13" lengthAdjust="spacing" textLength="123.1255" x="64.1206" y="438.2236">entradas registradas"</text></g><rect fill="#EEEEEE" height="3" style="stroke:#EEEEEE;stroke-width:1;" width="765.5537" x="0" y="478.4529"/><line style="stroke:#000000;stroke-width:1;" x1="0" x2="765.5537" y1="478.4529" y2="478.4529"/><line style="stroke:#000000;stroke-width:1;" x1="0" x2="765.5537" y1="481.4529" y2="481.4529"/><rect fill="#EEEEEE" height="22.9487" style="stroke:#000000;stroke-width:2;" width="169.3335" x="298.1101" y="467.9785"/><text fill="#000000" font-family="sans-serif" font-size="13" font-weight="700" lengthAdjust="spacing" textLength="151.7217" x="304.1101" y="484.1724">Registrar Nueva Entrada</text><g class="message" data-entity-1="part1" data-entity-2="part2" data-source-line="23" id="msg7"><polygon fill="#181818" points="232.5259,532.8247,242.5259,536.8247,232.5259,540.8247,236.5259,536.8247" style="stroke:#181818;stroke-width:1;"/><line style="stroke:#181818;stroke-width:1;" x1="47.1206" x2="238.5259" y1="536.8247" y2="536.8247"/><text fill="#000000" font-family="sans-serif" font-size="13" lengthAdjust="spacing" textLength="87.4517" x="54.1206" y="517.1211">Presiona bot&#243;n</text><text fill="#000000" font-family="sans-serif" font-size="13" lengthAdjust="spacing" textLength="111.1094" x="54.1206" y="532.0698">"Registrar Entrada"</text></g><g class="message" data-entity-1="part2" data-entity-2="part3" data-source-line="24" id="msg8"><polygon fill="#181818" points="391.6738,561.7734,401.6738,565.7734,391.6738,569.7734,395.6738,565.7734" style="stroke:#181818;stroke-width:1;"/><line style="stroke:#181818;stroke-width:1;" x1="244.5259" x2="397.6738" y1="565.7734" y2="565.7734"/><text fill="#000000" font-family="sans-serif" font-size="13" lengthAdjust="spacing" textLength="123.5571" x="251.5259" y="561.0186">mostrar(odontologos)</text></g><g class="message" data-entity-1="part3" data-entity-2="part1" data-source-line="25" id="msg9"><polygon fill="#181818" points="58.1206,605.6709,48.1206,609.6709,58.1206,613.6709,54.1206,609.6709" style="stroke:#181818;stroke-width:1;"/><line style="stroke:#181818;stroke-width:1;" x1="52.1206" x2="402.6738" y1="609.6709" y2="609.6709"/><text fill="#000000" font-family="sans-serif" font-size="13" lengthAdjust="spacing" textLength="138.728" x="64.1206" y="589.9673">Formulario: diagn&#243;stico,</text><text fill="#000000" font-family="sans-serif" font-size="13" lengthAdjust="spacing" textLength="172.707" x="64.1206" y="604.916">procedimiento, observaciones</text></g><g class="message" data-entity-1="part1" data-entity-2="part3" data-source-line="27" id="msg10"><polygon fill="#181818" points="391.6738,649.5684,401.6738,653.5684,391.6738,657.5684,395.6738,653.5684" style="stroke:#181818;stroke-width:1;"/><line style="stroke:#181818;stroke-width:1;" x1="47.1206" x2="397.6738" y1="653.5684" y2="653.5684"/><text fill="#000000" font-family="sans-serif" font-size="13" lengthAdjust="spacing" textLength="104.7681" x="54.1206" y="633.8647">Completa campos</text><text fill="#000000" font-family="sans-serif" font-size="13" lengthAdjust="spacing" textLength="111.2808" x="54.1206" y="648.8135">y presiona Guardar</text></g><g class="message" data-entity-1="part3" data-entity-2="part2" data-source-line="28" id="msg11"><polygon fill="#181818" points="255.5259,678.5171,245.5259,682.5171,255.5259,686.5171,251.5259,682.5171" style="stroke:#181818;stroke-width:1;"/><line style="stroke:#181818;stroke-width:1;" x1="249.5259" x2="402.6738" y1="682.5171" y2="682.5171"/><text fill="#000000" font-family="sans-serif" font-size="13" lengthAdjust="spacing" textLength="135.1479" x="261.5259" y="677.7622">return datos de entrada</text></g><g class="message" data-entity-1="part2" data-entity-2="part4" data-source-line="29" id="msg12"><polygon fill="#181818" points="498.5459,707.4658,508.5459,711.4658,498.5459,715.4658,502.5459,711.4658" style="stroke:#181818;stroke-width:1;"/><line style="stroke:#181818;stroke-width:1;" x1="244.5259" x2="504.5459" y1="711.4658" y2="711.4658"/><text fill="#000000" font-family="sans-serif" font-size="13" lengthAdjust="spacing" textLength="188.5952" x="251.5259" y="706.7109">registrar_entrada_historia(datos)</text></g><g class="message" data-entity-1="part4" data-entity-2="part5" data-source-line="30" id="msg13"><polygon fill="#181818" points="724.1538,751.3633,734.1538,755.3633,724.1538,759.3633,728.1538,755.3633" style="stroke:#181818;stroke-width:1;"/><line style="stroke:#181818;stroke-width:1;" x1="510.5459" x2="730.1538" y1="755.3633" y2="755.3633"/><text fill="#000000" font-family="sans-serif" font-size="13" lengthAdjust="spacing" textLength="185.6563" x="517.5459" y="735.6597">INSERT INTO historia_clinica ...</text><text fill="#000000" font-family="sans-serif" font-size="13" lengthAdjust="spacing" textLength="65.749" x="517.5459" y="750.6084">VALUES ...</text></g><g class="message" data-entity-1="part4" data-entity-2="part2" data-source-line="31" id="msg14"><polygon fill="#181818" points="255.5259,780.312,245.5259,784.312,255.5259,788.312,251.5259,784.312" style="stroke:#181818;stroke-width:1;"/><line style="stroke:#181818;stroke-width:1;" x1="249.5259" x2="509.5459" y1="784.312" y2="784.312"/><text fill="#000000" font-family="sans-serif" font-size="13" lengthAdjust="spacing" textLength="127.1943" x="261.5259" y="779.5571">return id de la entrada</text></g><g class="message" data-entity-1="part2" data-entity-2="part2" data-source-line="32" id="msg15"><line style="stroke:#181818;stroke-width:1;" x1="244.5259" x2="286.5259" y1="813.2607" y2="813.2607"/><line style="stroke:#181818;stroke-width:1;" x1="286.5259" x2="286.5259" y1="813.2607" y2="826.2607"/><line style="stroke:#181818;stroke-width:1;" x1="245.5259" x2="286.5259" y1="826.2607" y2="826.2607"/><polygon fill="#181818" points="255.5259,822.2607,245.5259,826.2607,255.5259,830.2607,251.5259,826.2607" style="stroke:#181818;stroke-width:1;"/><text fill="#000000" font-family="sans-serif" font-size="13" lengthAdjust="spacing" textLength="111.9727" x="251.5259" y="808.5059">refrescar_historial()</text></g><g class="message" data-entity-1="part2" data-entity-2="part1" data-source-line="33" id="msg16"><polygon fill="#181818" points="58.1206,851.2095,48.1206,855.2095,58.1206,859.2095,54.1206,855.2095" style="stroke:#181818;stroke-width:1;"/><line style="stroke:#181818;stroke-width:1;" x1="52.1206" x2="243.5259" y1="855.2095" y2="855.2095"/><text fill="#000000" font-family="sans-serif" font-size="13" lengthAdjust="spacing" textLength="116.1812" x="64.1206" y="850.4546">"Entrada registrada"</text></g><?plantuml-src VLDHRjim3FtNAGZl9nsw7A10DcokitPeaov9Empp4D2owWgLHK-oE-nG-yeHSh5HZXqtJJ7umvBu7lN4H_f7RIjqM4A6yh5mrDWy9aCEtaoJy0cKDUzkVODE4w27nYidc5DhgIkqDKGtojTeDLveprYDiT5MIum2kkBO8VfSew62Ud2Boarn28h9-iO40Eq0cSYnnWozWcZvzKhNgZttlumGambqU7JGvuNORFy66J2P2154mxlthHmuWwKoIafD5g52gPMjLMh_GEMKRm-ZEpLaYaJBOdQUCTVmCRhrGnTTozrhHtsYjSvF12CPp-h2PSbL4g_WGOxVdWADBPMPKs65bJ96vvJQwM9-3IypCYErN-QNCw2SR4sXQi3W-Ipa6ixuGfXmEfsdzjj5iaX2-9aQ3dvWrk8yMS2dxo5uh-G3mdcoZ3kXNLcSgXjdsnV-U67cJo7GrA7EUvr60FILQUjx1jSDxnt2oYdrfDLla8uicUscq9A4CkpUKlytGvIOlILW2MfUiJUyTPYpuKuLsk_MaL0sRzrVT8SEPerwGaXswDUSl-ajpgZURcngeu7SqPxvRGgcbDI6HqF5FHlCeK7rb5pPc30XPv1hBEnsuxcPwJIrbIEfSbs65n6xdZ7Z2KFlAJ-eszqKKraPLID8B2lo1otvcGSmHzTVVEWOpmRna2ZewdJOiNtDtBeBxvjtr18Fs_LojamMA_wjviSjEHwFKtltyUesMORrg-t37STA31w9sSFk-L7osGoPqOauweFEmy7mIFm3?></g></svg>